<svg width="436" height="456" viewBox="0 0 436 456" fill="none" xmlns="http://www.w3.org/2000/svg">
<path d="M326.081 25.729V86.4606H334.605V101.184L349.339 86.4606H430.181V25.729H326.081Z" fill="black"/>
<path d="M397.808 56.0948C397.808 57.0703 398.097 58.024 398.639 58.8351C399.181 59.6462 399.951 60.2785 400.853 60.6518C401.754 61.0251 402.746 61.1228 403.703 60.9325C404.659 60.7421 405.538 60.2724 406.228 59.5826C406.918 58.8927 407.388 58.0139 407.578 57.0571C407.768 56.1003 407.671 55.1085 407.297 54.2072C406.924 53.3059 406.292 52.5356 405.481 51.9936C404.67 51.4516 403.716 51.1623 402.74 51.1623C402.093 51.1623 401.451 51.2899 400.853 51.5378C400.254 51.7857 399.711 52.149 399.253 52.607C398.795 53.065 398.431 53.6088 398.183 54.2072C397.935 54.8056 397.808 55.447 397.808 56.0948Z" fill="white"/>
<path d="M373.198 56.0948C373.198 57.0703 373.488 58.024 374.03 58.8351C374.572 59.6462 375.342 60.2785 376.243 60.6518C377.145 61.0251 378.136 61.1228 379.093 60.9325C380.05 60.7421 380.929 60.2724 381.619 59.5826C382.309 58.8927 382.778 58.0139 382.969 57.0571C383.159 56.1003 383.061 55.1085 382.688 54.2072C382.315 53.3059 381.682 52.5356 380.871 51.9936C380.06 51.4516 379.106 51.1623 378.131 51.1623C376.823 51.1623 375.568 51.682 374.643 52.607C373.718 53.532 373.198 54.7866 373.198 56.0948Z" fill="white"/>
<path d="M348.589 56.0948C348.589 57.0708 348.879 58.0249 349.421 58.8362C349.963 59.6476 350.734 60.2798 351.636 60.6528C352.538 61.0258 353.531 61.1229 354.488 60.9317C355.445 60.7405 356.324 60.2697 357.013 59.5788C357.702 58.8879 358.171 58.0081 358.36 57.0506C358.55 56.0931 358.45 55.101 358.075 54.1999C357.7 53.2988 357.067 52.5292 356.254 51.9885C355.442 51.4478 354.487 51.1602 353.511 51.1623C352.205 51.1651 350.953 51.686 350.03 52.6107C349.107 53.5355 348.589 54.7885 348.589 56.0948Z" fill="white"/>
<path d="M151.449 218.127V303.087H139.524V323.694L118.918 303.087H5.81989V218.127H151.449Z" fill="white"/>
<path d="M151.459 218.126C151.533 242.281 152.072 279.217 152.093 303.087V303.71H151.459L139.535 303.763L140.221 303.076L140.317 323.683V325.573L138.975 324.242L118.284 303.71C93.4001 304.544 32.3516 303.826 4.78479 304.111V303.055L4.92209 218.094V217.186H5.81987C42.1321 217.355 115.158 217.756 151.449 218.084L151.459 218.126ZM151.459 218.126C115.168 218.453 42.1109 218.855 5.83043 219.024L6.7282 218.126L6.8655 303.087L5.8093 302.031C34.2211 302.031 90.8863 302.115 119.288 302.168L119.541 302.432L140.074 323.112L138.732 323.672L138.827 303.066V302.369H139.514L151.438 302.421L150.805 303.055C150.963 279.343 151.238 242.07 151.438 218.094L151.459 218.126Z" fill="black"/>
<path d="M51.1203 260.659C51.1224 262.026 50.7191 263.363 49.9614 264.5C49.2036 265.637 48.1255 266.524 46.8635 267.049C45.6015 267.573 44.2123 267.711 42.8717 267.446C41.531 267.181 40.2993 266.524 39.3322 265.558C38.3651 264.592 37.7061 263.362 37.4387 262.021C37.1714 260.681 37.3075 259.292 37.83 258.029C38.3525 256.766 39.2379 255.687 40.3741 254.927C41.5102 254.168 42.8462 253.762 44.2128 253.762C45.1194 253.761 46.0174 253.938 46.8554 254.284C47.6934 254.63 48.455 255.138 49.0965 255.779C49.7381 256.419 50.2471 257.18 50.5943 258.018C50.9416 258.855 51.1204 259.753 51.1203 260.659Z" fill="black"/>
<path d="M85.542 260.659C85.5441 262.026 85.1407 263.363 84.383 264.5C83.6252 265.637 82.5472 266.524 81.2852 267.049C80.0231 267.573 78.6339 267.711 77.2933 267.446C75.9527 267.181 74.7209 266.524 73.7538 265.558C72.7867 264.592 72.1278 263.362 71.8604 262.021C71.593 260.681 71.7292 259.292 72.2517 258.029C72.7742 256.766 73.6595 255.687 74.7957 254.927C75.9319 254.168 77.2678 253.762 78.6344 253.762C79.541 253.761 80.439 253.938 81.277 254.284C82.115 254.63 82.8766 255.138 83.5182 255.779C84.1597 256.419 84.6687 257.18 85.016 258.018C85.3632 258.855 85.542 259.753 85.542 260.659Z" fill="black"/>
<path d="M119.974 260.659C119.976 262.026 119.573 263.363 118.815 264.5C118.057 265.637 116.979 266.524 115.717 267.049C114.455 267.573 113.066 267.711 111.725 267.446C110.385 267.181 109.153 266.524 108.186 265.558C107.219 264.592 106.56 263.362 106.293 262.021C106.025 260.681 106.161 259.292 106.684 258.029C107.206 256.766 108.092 255.687 109.228 254.927C110.364 254.168 111.7 253.762 113.067 253.762C113.973 253.761 114.871 253.938 115.709 254.284C116.547 254.63 117.309 255.138 117.95 255.779C118.592 256.419 119.101 257.18 119.448 258.018C119.795 258.855 119.974 259.753 119.974 260.659Z" fill="black"/>
<path d="M25.085 57.4044L29.7111 64.3014L37.7066 66.5722L32.5735 73.0995L32.8798 81.4013L25.085 78.539L17.2902 81.4013L17.5965 73.0995L12.4739 66.5722L20.4588 64.3014L25.085 57.4044Z" fill="black"/>
<path d="M60.7741 57.4044L65.4002 64.3014L73.3851 66.5722L68.2625 73.0995L68.5688 81.4013L60.7741 78.539L52.9687 81.4013L53.2856 73.0995L48.1525 66.5722L56.1479 64.3014L60.7741 57.4044Z" fill="black"/>
<path d="M96.4525 57.4044L101.089 64.3014L109.074 66.5722L103.941 73.0995L104.258 81.4013L96.4525 78.539L88.6578 81.4013L88.9641 73.0995L83.8415 66.5722L91.8264 64.3014L96.4525 57.4044Z" fill="black"/>
<path d="M132.142 57.4044L136.768 64.3014L144.763 66.5722L139.63 73.0995L139.936 81.4013L132.142 78.539L124.347 81.4013L124.653 73.0995L119.52 66.5722L127.515 64.3014L132.142 57.4044Z" fill="black"/>
<path d="M176.185 82.1616L167.831 79.0986L159.476 82.1616L159.803 73.2684L154.311 66.3186L162.866 63.8893L167.831 56.4959L172.784 63.8893L181.35 66.3186L175.858 73.3212L176.185 82.1616ZM167.831 77.9368L175.066 80.5879L174.78 72.8882L179.544 66.815L172.15 64.7026L167.852 58.2915L163.553 64.7026L156.16 66.815L160.923 72.8882L160.638 80.5879L167.831 77.9368Z" fill="black"/>
<path d="M167.831 78.539V57.4044L163.204 64.3014L155.209 66.5722L160.342 73.0995L160.025 81.4013L167.831 78.539Z" fill="black"/>
<path fill-rule="evenodd" clip-rule="evenodd" d="M354.641 218.602C352.529 217.302 350.765 215.433 347.997 215.697C346.941 215.813 347.163 214.926 347.152 214.356L347.026 183.134C347.026 182.384 347.026 181.761 347.892 181.339C355.824 177.304 359.246 169.404 364.094 162.655C366.579 159.3 368.363 155.479 369.34 151.419C370.316 147.36 370.465 143.145 369.776 139.027C369.438 136.683 370.526 135.637 372.639 135.151C375.174 134.56 377.708 135.257 378.585 136.999C380.882 141.241 382.432 145.847 383.169 150.614C383.634 154.564 382.24 158.409 381.754 162.317C381.405 165.168 380.697 167.999 380.212 170.893C380.909 171.4 381.722 171.136 382.472 171.136C391.259 171.136 400.061 171.111 408.877 171.062C412.574 171.062 414.401 172.118 414.918 174.569C415.208 176.081 414.993 177.646 414.306 179.024C413.619 180.402 412.498 181.516 411.116 182.194C410.461 182.532 409.268 182.194 409.194 183.251C409.12 184.307 410.345 184.191 410.947 184.613C414.116 186.789 413.566 191.288 409.891 193.908C409.004 194.531 407.293 194.246 407.25 195.545C407.25 196.601 408.845 196.601 409.574 197.287C412.151 199.822 410.884 204.565 407.05 206.498C406.523 206.66 406.008 206.857 405.508 207.089C405.075 207.385 404.652 207.723 405.508 208.314C409.321 211.018 409.257 214.81 405.434 217.588L404.293 218.411C402.907 219.259 401.283 219.63 399.667 219.468C385.887 219.545 372.1 219.594 358.306 219.616C357.658 219.699 357.001 219.653 356.371 219.479C355.742 219.304 355.153 219.006 354.641 218.602Z" fill="black"/>
<path fill-rule="evenodd" clip-rule="evenodd" d="M315.382 200.372C315.382 193.77 315.382 187.148 315.287 180.547C315.287 179.195 315.414 178.54 317.061 178.551C325.131 178.624 333.179 178.551 341.248 178.477C342.833 178.477 343.076 179.005 343.076 180.409C343.076 193.711 343.121 207.012 343.213 220.313C343.213 222.013 342.769 222.489 341.1 222.425C333.274 222.362 325.458 222.372 317.642 222.52C315.699 222.52 315.424 221.876 315.435 220.175C315.488 213.606 315.403 206.994 315.382 200.372Z" fill="black"/>
<path fill-rule="evenodd" clip-rule="evenodd" d="M201.956 306.964C203.52 307.957 204.882 309.383 206.984 309.182C207.797 309.108 207.618 309.773 207.618 310.238C207.618 318.146 207.618 326.046 207.618 333.939C207.618 334.51 207.618 334.995 206.952 335.302C200.921 338.344 198.302 344.322 194.616 349.444C192.713 351.988 191.344 354.889 190.591 357.975C189.838 361.06 189.716 364.266 190.233 367.4C190.486 369.185 189.662 369.977 188.057 370.336C186.124 370.78 184.212 370.251 183.547 368.921C181.809 365.695 180.644 362.193 180.104 358.57C179.755 355.581 180.832 352.655 181.16 349.698C181.434 347.522 181.941 345.389 182.353 343.192C181.825 342.801 181.213 343.001 180.642 342.991H160.691C157.871 342.991 156.466 342.178 156.107 340.319C155.893 339.169 156.06 337.981 156.585 336.936C157.109 335.891 157.962 335.046 159.011 334.531C159.508 334.277 160.416 334.531 160.479 333.728C160.543 332.925 159.603 333.01 159.149 332.672C156.73 331.024 157.184 327.602 159.972 325.627C160.648 325.152 161.948 325.373 161.979 324.391C161.979 323.599 160.775 323.61 160.226 323.06C158.272 321.128 159.244 317.536 162.159 316.079C162.56 315.956 162.952 315.804 163.331 315.625C163.659 315.403 163.986 315.16 163.331 314.695C160.448 312.583 160.511 309.763 163.416 307.661L164.282 307.038C165.34 306.408 166.575 306.141 167.799 306.277C178.262 306.277 188.726 306.277 199.189 306.277C200.166 306.133 201.16 306.38 201.956 306.964Z" fill="black"/>
<path fill-rule="evenodd" clip-rule="evenodd" d="M231.731 320.863C231.731 325.88 231.731 330.908 231.731 335.925C231.731 336.981 231.636 337.446 230.389 337.424C224.263 337.354 218.141 337.354 212.022 337.424C210.829 337.424 210.638 337.023 210.649 335.956C210.649 325.859 210.649 315.762 210.649 305.664C210.649 304.376 210.998 304.006 212.286 304.038C218.222 304.101 224.158 304.112 230.094 304.038C231.572 304.038 231.773 304.534 231.752 305.833C231.657 310.861 231.731 315.878 231.731 320.863Z" fill="black"/>
<path d="M0 438.102C139.662 437.447 296.338 437.447 436 438.102C296.338 438.746 139.662 438.746 0 438.102Z" fill="#263238"/>
<path d="M287.952 60.7422L293.318 68.4736L302.338 71.1881L296.624 78.6765L296.835 88.0873L287.952 84.9715L279.07 88.0873L279.281 78.6765L273.577 71.1881L282.597 68.4736L287.952 60.7422Z" fill="#6864ED"/>
<path d="M103.033 192.503L108.388 200.245L117.407 202.949L111.704 210.437L111.915 219.848L103.033 216.743L94.1393 219.848L94.3611 210.437L88.6471 202.949L97.6671 200.245L103.033 192.503Z" fill="#6864ED"/>
<path d="M168.306 277.623L170.989 281.488L175.499 282.84L172.647 286.59L172.752 291.29L168.306 289.737L163.859 291.29L163.965 286.59L161.124 282.84L165.623 281.488L168.306 277.623Z" fill="#6864ED"/>
<path d="M340.16 181.677L342.843 185.553L347.343 186.905L344.491 190.644L344.607 195.355L340.16 193.802L335.714 195.355L335.819 190.644L332.968 186.905L337.478 185.553L340.16 181.677Z" fill="#6864ED"/>
<path d="M257.058 44.6139L259.741 48.4796L264.251 49.8315L261.399 53.581L261.505 58.2917L257.058 56.7285L252.622 58.2917L252.728 53.581L249.876 49.8315L254.386 48.4796L257.058 44.6139Z" fill="#6864ED"/>
<path d="M178.773 437.605C181.36 438.534 257.819 440.044 260.702 438.291C261.03 438.112 262.276 412.816 262.276 412.816C262.192 412.456 263.47 410.017 265.445 406.626C270.895 397.12 281.552 380.073 281.552 380.073L236.135 366.343L217.493 403.679L212.74 413.185C212.74 413.185 202.315 417.252 193.222 421.318C187.624 423.811 182.744 426.103 181.603 426.947C178.678 429.261 176.196 436.686 178.773 437.605Z" fill="#FFC4C0"/>
<path d="M178.773 437.605C181.36 438.534 257.819 440.044 260.702 438.291C261.03 438.112 262.276 412.816 262.276 412.816C262.191 412.457 263.469 410.017 265.445 406.626L217.535 403.69L212.782 413.196C212.782 413.196 202.358 417.262 193.264 421.329C187.666 423.821 182.786 426.113 181.646 426.958C178.678 429.261 176.196 436.686 178.773 437.605Z" fill="white"/>
<path d="M178.456 437.89C181.117 438.83 257.671 440.14 260.628 438.344C261.748 437.668 263.1 425.881 262.276 412.816L212.92 412.023C212.92 412.023 184.328 424.698 181.308 426.979C178.287 429.261 175.752 436.95 178.456 437.89Z" fill="#FFB400"/>
<path opacity="0.1" d="M260.628 438.344C259.572 438.999 248.672 439.242 235.153 439.242L261.072 412.837H262.265C263.1 425.881 261.748 437.668 260.628 438.344Z" fill="black"/>
<path d="M179.607 434.838C192.45 434.743 244.236 435.577 256.942 436.454C257.037 436.454 257.037 436.538 256.942 436.538C244.215 436.908 192.429 435.662 179.607 435.049C179.332 435.038 179.332 434.848 179.607 434.838Z" fill="#263238"/>
<path d="M186.314 424.307C187.742 424.293 189.157 424.576 190.47 425.138C191.782 425.7 192.964 426.528 193.94 427.571C195.711 429.434 196.698 431.907 196.696 434.478C196.696 434.552 196.549 434.552 196.538 434.478C196.143 431.931 194.933 429.579 193.09 427.776C191.247 425.973 188.87 424.815 186.314 424.476C186.292 424.476 186.27 424.467 186.254 424.451C186.238 424.436 186.229 424.414 186.229 424.392C186.229 424.369 186.238 424.348 186.254 424.332C186.27 424.316 186.292 424.307 186.314 424.307Z" fill="#263238"/>
<path d="M208.864 413.249C214.008 413.249 219.933 415.172 223.049 419.428C223.175 419.597 222.932 419.766 222.785 419.681C218.332 417.252 213.634 415.305 208.769 413.872C208.693 413.853 208.627 413.805 208.584 413.74C208.541 413.675 208.523 413.595 208.535 413.518C208.547 413.44 208.587 413.37 208.648 413.32C208.709 413.271 208.786 413.245 208.864 413.249Z" fill="#263238"/>
<path d="M204.871 414.717C210.015 414.717 215.94 416.65 219.056 420.907C219.183 421.076 218.94 421.245 218.792 421.16C214.34 418.731 209.642 416.783 204.776 415.351C204.706 415.325 204.647 415.275 204.609 415.21C204.57 415.146 204.556 415.07 204.567 414.996C204.578 414.921 204.614 414.853 204.67 414.802C204.725 414.752 204.796 414.722 204.871 414.717Z" fill="#263238"/>
<path d="M200.89 416.195C206.023 416.195 211.948 418.128 215.064 422.385C215.191 422.554 214.948 422.723 214.8 422.638C210.348 420.209 205.649 418.262 200.784 416.829C200.713 416.802 200.654 416.752 200.616 416.686C200.578 416.621 200.564 416.544 200.576 416.469C200.589 416.394 200.627 416.326 200.684 416.276C200.741 416.226 200.814 416.198 200.89 416.195Z" fill="#263238"/>
<path d="M196.876 417.675C202.009 417.675 207.934 419.607 211.05 423.864C211.177 424.033 210.934 424.202 210.786 424.117C206.334 421.688 201.636 419.741 196.77 418.308C196.699 418.282 196.64 418.231 196.602 418.165C196.564 418.1 196.55 418.023 196.563 417.948C196.575 417.873 196.613 417.805 196.67 417.755C196.727 417.705 196.8 417.677 196.876 417.675Z" fill="#263238"/>
<path d="M253.911 424.212C259.678 424.328 259.498 433.285 253.731 433.169C247.964 433.053 248.102 424.096 253.911 424.212Z" fill="#263238"/>
<path d="M203.836 406.975C206.54 410.598 210.733 412.922 214.346 415.52C214.431 415.568 214.526 415.596 214.624 415.602C214.722 415.607 214.82 415.59 214.91 415.551C215 415.512 215.08 415.453 215.144 415.378C215.207 415.303 215.252 415.214 215.275 415.118C215.296 415.124 215.318 415.125 215.339 415.12C215.36 415.114 215.38 415.104 215.396 415.089C215.412 415.074 215.424 415.056 215.43 415.035C215.437 415.014 215.438 414.992 215.433 414.971C215.138 410.254 213.608 405.697 210.997 401.758C209.434 399.497 206.192 397.332 203.551 399.444C200.911 401.557 202.252 404.863 203.836 406.975ZM203.667 402.75C204.28 397.174 209.244 401.546 210.332 403.268C211.016 404.39 211.623 405.559 212.149 406.764C213.279 409.246 214.039 411.844 214.916 414.421C213.215 413.038 211.409 411.813 209.635 410.503C207.586 408.897 203.329 405.792 203.667 402.719V402.75Z" fill="#263238"/>
<path d="M233.737 412.013C233.389 408.654 229.576 407.862 226.862 408.338C222.219 409.235 217.894 411.341 214.324 414.442C214.307 414.454 214.293 414.47 214.283 414.488C214.273 414.507 214.268 414.527 214.268 414.548C214.268 414.569 214.273 414.59 214.283 414.608C214.293 414.626 214.307 414.642 214.324 414.654C214.271 414.737 214.239 414.833 214.229 414.931C214.22 415.03 214.233 415.13 214.269 415.222C214.305 415.315 214.362 415.398 214.436 415.464C214.51 415.53 214.598 415.578 214.694 415.604C219.077 416.354 223.672 417.717 228.15 417.093C230.78 416.745 234.065 415.192 233.737 412.013ZM221.591 415.393C219.426 415.066 217.282 414.643 215.106 414.4C217.556 413.217 219.943 411.939 222.499 410.999C223.73 410.533 224.99 410.144 226.27 409.837C228.256 409.415 234.857 409.837 231.308 414.231C229.354 416.629 224.168 415.773 221.591 415.393Z" fill="#263238"/>
<path d="M268.888 406.415L218 398.736C218 398.736 242.483 349.94 257.629 323.461C266.078 308.738 289.114 308.019 300.32 325.658C315.297 349.222 326.926 371.307 333.58 383.548L345.135 384.541L342.632 403.415L304.239 412.013C289.526 413.766 279.207 387.583 278.964 388.027C277.073 391.47 268.888 406.415 268.888 406.415Z" fill="#37474F"/>
<path d="M278.668 388.143C280.115 385.175 281.245 382.027 282.534 378.996C283.822 375.965 285.027 373.113 286.262 370.166C288.765 364.22 291.353 358.295 293.772 352.316C295.134 348.958 296.381 345.557 297.659 342.166C297.659 342.092 297.807 342.166 297.785 342.166C296.803 345.335 295.779 348.567 294.701 351.746C294.987 351.197 295.272 350.69 295.567 350.109C296.391 348.651 297.236 347.204 298.081 345.757C298.081 345.705 298.197 345.757 298.166 345.81C297.384 347.268 296.602 348.715 295.789 350.151C295.388 350.859 294.944 351.567 294.522 352.264C291.554 361.177 288.026 369.894 283.96 378.362C282.333 381.689 280.443 384.869 278.816 388.185C278.763 388.344 278.615 388.248 278.668 388.143Z" fill="#263238"/>
<path d="M299.327 345.853C303.711 353.69 308.2 361.474 312.604 369.3C314.833 373.25 317.061 377.211 319.258 381.172C320.314 383.041 321.307 384.932 322.427 386.78C323.349 388.522 324.744 389.968 326.451 390.952C328.475 391.925 330.6 392.673 332.788 393.181C335.27 393.91 337.731 394.691 340.181 395.367C340.287 395.367 340.234 395.579 340.129 395.547C337.9 394.955 335.661 394.491 333.432 393.889C331.379 393.455 329.352 392.908 327.359 392.251C325.598 391.659 324.039 390.583 322.86 389.146C321.656 387.479 320.596 385.712 319.691 383.865C315.29 375.81 310.928 367.737 306.605 359.647C304.144 355.052 301.704 350.436 299.211 345.853C299.327 345.842 299.327 345.821 299.327 345.853Z" fill="#263238"/>
<path d="M270.039 399.307C266.987 398.758 263.86 398.483 260.787 398.093L251.534 396.91C245.377 396.096 224.432 392.769 222.848 392.241C222.742 392.241 222.785 392.041 222.848 392.041C224.348 392.041 238.068 393.826 241.141 394.269C247.299 395.178 253.414 396.276 259.54 397.301C261.294 397.596 263.036 397.934 264.821 398.241C266.606 398.547 268.317 398.927 270.102 399.159C270.176 399.159 270.145 399.328 270.039 399.307Z" fill="#263238"/>
<path d="M236.019 449.117C236.991 446.551 285.745 387.636 288.945 386.601C289.315 386.464 309.287 402.032 309.287 402.032C310.09 403.204 349.624 396.624 349.624 396.624L347.913 443.9L276.619 439.284C276.619 439.284 266.733 444.565 257.713 448.79C252.168 451.409 247.257 453.617 245.873 453.913C242.293 454.652 235.026 451.673 236.019 449.117Z" fill="#FFC4C0"/>
<path d="M245.884 453.944C247.267 453.648 252.221 451.452 257.724 448.822C266.733 444.597 276.619 439.316 276.619 439.316L292.462 440.372L319.068 401.293C313.576 402.021 309.478 402.423 309.214 402.042C309.214 402.042 289.251 386.485 288.882 386.622C285.713 387.678 236.927 446.572 235.955 449.139C234.984 451.705 242.293 454.652 245.884 453.944Z" fill="white"/>
<path d="M235.586 449.181C236.642 446.551 285.576 387.689 288.861 386.622C290.107 386.21 299.919 392.875 309.287 402.032L277.675 439.95C277.675 439.95 249.443 453.364 245.715 454.145C241.986 454.927 234.572 451.832 235.586 449.181Z" fill="#FFB400"/>
<path d="M238.649 450.3C247.098 440.636 280.263 400.839 287.889 390.646C287.942 390.562 287.889 390.519 287.825 390.593C279.239 399.994 246.391 440.045 238.49 450.163C238.321 450.374 238.469 450.501 238.649 450.3Z" fill="#263238"/>
<path d="M250.985 452.118C251.926 451.043 252.633 449.785 253.064 448.424C253.495 447.062 253.639 445.627 253.488 444.207C253.23 441.652 251.997 439.295 250.045 437.626C250.045 437.574 249.897 437.679 249.95 437.743C251.627 439.702 252.622 442.152 252.785 444.726C252.949 447.299 252.273 449.856 250.858 452.012C250.85 452.029 250.847 452.049 250.851 452.067C250.855 452.086 250.865 452.103 250.879 452.116C250.894 452.128 250.913 452.135 250.932 452.135C250.951 452.136 250.97 452.129 250.985 452.118Z" fill="#263238"/>
<path d="M274.105 442.221C277.454 438.313 279.862 432.577 278.679 427.434C278.626 427.233 278.341 427.307 278.309 427.434C277.25 432.396 275.66 437.229 273.567 441.851C273.518 441.922 273.499 442.01 273.515 442.095C273.531 442.181 273.58 442.256 273.651 442.305C273.723 442.354 273.811 442.373 273.896 442.357C273.981 442.341 274.056 442.292 274.105 442.221Z" fill="#263238"/>
<path d="M270.388 444.28C273.725 440.372 276.133 434.637 274.95 429.493C274.95 429.293 274.623 429.367 274.581 429.493C273.52 434.451 271.93 439.281 269.838 443.9C269.788 443.973 269.768 444.063 269.784 444.15C269.8 444.237 269.85 444.314 269.923 444.365C269.996 444.415 270.086 444.434 270.173 444.419C270.26 444.403 270.337 444.353 270.388 444.28Z" fill="#263238"/>
<path d="M266.659 446.34C269.997 442.432 272.415 436.697 271.222 431.553C271.222 431.352 270.895 431.426 270.863 431.553C269.797 436.51 268.208 441.339 266.121 445.959C266.096 445.995 266.078 446.035 266.068 446.077C266.059 446.119 266.058 446.163 266.065 446.206C266.072 446.248 266.088 446.289 266.111 446.326C266.134 446.362 266.164 446.394 266.2 446.419C266.235 446.444 266.275 446.462 266.317 446.471C266.359 446.481 266.403 446.482 266.446 446.474C266.489 446.467 266.529 446.451 266.566 446.428C266.603 446.405 266.634 446.375 266.659 446.34Z" fill="#263238"/>
<path d="M262.931 448.399C266.279 444.491 268.687 438.756 267.504 433.612C267.451 433.412 267.166 433.486 267.135 433.612C266.067 438.586 264.466 443.43 262.361 448.061C262.316 448.137 262.303 448.227 262.325 448.312C262.346 448.398 262.401 448.471 262.477 448.515C262.552 448.56 262.643 448.573 262.728 448.551C262.813 448.53 262.886 448.475 262.931 448.399Z" fill="#263238"/>
<path d="M295.166 400.955C298.842 396.508 291.945 390.794 288.259 395.241C284.572 399.687 291.491 405.359 295.166 400.955Z" fill="#263238"/>
<path d="M281.098 455.254C284.425 454.631 284.889 450.766 284.203 448.104C282.922 443.553 280.467 439.419 277.084 436.116C277.07 436.1 277.053 436.088 277.034 436.079C277.015 436.07 276.994 436.066 276.973 436.066C276.952 436.066 276.931 436.07 276.912 436.079C276.893 436.088 276.876 436.1 276.862 436.116C276.774 436.072 276.677 436.049 276.578 436.049C276.48 436.048 276.382 436.071 276.294 436.115C276.206 436.16 276.129 436.224 276.07 436.303C276.011 436.382 275.971 436.473 275.954 436.57C275.563 440.996 274.591 445.685 275.574 450.1C276.144 452.698 277.961 455.835 281.098 455.254ZM276.735 443.383C276.873 441.196 277.126 439.031 277.179 436.845C278.634 439.141 279.97 441.51 281.182 443.943C281.755 445.126 282.245 446.347 282.65 447.597C283.242 449.54 283.316 456.163 278.689 452.984C276.144 451.273 276.566 446.023 276.735 443.383Z" fill="#263238"/>
<path d="M283.78 425.079C280.39 428.078 278.415 432.472 276.133 436.253C276.089 436.342 276.066 436.44 276.067 436.54C276.068 436.639 276.093 436.737 276.139 436.825C276.186 436.913 276.253 436.988 276.334 437.045C276.416 437.102 276.51 437.138 276.609 437.151C276.609 437.236 276.661 437.32 276.767 437.299C281.447 436.613 285.863 434.704 289.568 431.764C291.681 430.022 293.592 426.61 291.269 424.16C288.945 421.709 285.755 423.315 283.78 425.079ZM288.005 424.561C293.613 424.709 289.653 430.022 288.005 431.247C286.943 432.028 285.828 432.734 284.667 433.359C282.261 434.61 279.794 435.738 277.274 436.739C278.51 434.933 279.577 433.042 280.749 431.194C282.175 428.976 284.921 424.487 288.016 424.561H288.005Z" fill="#263238"/>
<path d="M337.203 381.922C337.203 381.922 387.784 376.472 407.799 381.869C435.715 389.379 438.904 422.913 417.411 435.672C390.161 451.832 295.705 442.833 295.705 442.833L322.11 398.378C322.11 398.378 361.686 390.984 397.163 393.868L325.585 402.719L337.203 381.922Z" fill="#37474F"/>
<path d="M320.251 401.367C320.278 401.291 320.299 401.213 320.314 401.134C320.326 401.066 320.343 400.999 320.367 400.933L320.494 400.479C320.591 400.167 320.704 399.861 320.832 399.56C320.959 399.254 321.085 398.969 321.233 398.673C321.379 398.385 321.549 398.11 321.74 397.849H321.814H321.877H321.951C326.292 397.152 355.75 393.815 360.154 393.456C364.559 393.096 368.984 392.832 373.41 392.621C382.227 392.162 391.064 392.193 399.878 392.716C400.702 392.716 401.526 392.843 402.349 392.906C402.529 392.906 402.719 392.832 402.899 392.79C403.332 392.695 403.754 392.6 404.187 392.526C404.99 392.389 405.793 392.294 406.595 392.199C408.275 391.987 409.965 391.871 411.633 391.597C411.739 391.597 411.771 391.755 411.633 391.776C409.944 392.104 408.285 392.568 406.595 392.896L405.138 393.17C408.359 393.498 411.581 393.91 414.792 394.374C414.887 394.374 414.887 394.565 414.792 394.554C410.419 394.079 405.993 393.846 401.6 393.741C397.206 393.635 392.865 393.551 388.492 393.635C379.652 393.804 370.801 394.29 361.981 394.924C357.028 395.272 326.968 398.779 322.004 398.789H321.941C321.903 398.917 321.853 399.04 321.793 399.159C321.645 399.455 321.497 399.74 321.339 400.025C321.18 400.31 321.032 400.564 320.853 400.817L320.599 401.208L320.462 401.398C320.41 401.461 320.364 401.528 320.325 401.599C320.346 401.567 320.188 401.483 320.251 401.367Z" fill="#263238"/>
<path d="M309.256 440.055C310.819 437.499 312.171 434.774 313.607 432.112C315.044 429.451 316.491 426.831 317.938 424.17C320.832 418.889 331.151 401.134 332.144 399.877C332.207 399.803 332.323 399.877 332.292 399.993C331.785 401.377 325.31 413.143 323.842 415.762C320.863 421.043 317.758 426.134 314.695 431.299C313.819 432.778 312.921 434.235 312.034 435.703C311.146 437.172 310.206 438.608 309.383 440.118C309.33 440.213 309.203 440.15 309.256 440.055Z" fill="#263238"/>
<path d="M333.749 404.778C336.379 404.208 339.03 403.88 341.713 403.447C344.396 403.014 346.994 402.581 349.687 402.159C354.996 401.3 360.32 400.497 365.657 399.751C376.282 398.261 386.939 397.1 397.639 396.434C403.67 396.064 409.711 395.906 415.753 395.684C415.879 395.684 415.869 395.895 415.753 395.906C404.979 396.133 394.226 396.937 383.539 398.314C372.977 399.518 362.414 400.874 351.852 402.381L342.906 403.669C339.886 404.113 336.854 404.725 333.813 404.979C333.787 404.985 333.76 404.98 333.737 404.967C333.714 404.954 333.697 404.933 333.689 404.907C333.681 404.882 333.683 404.855 333.694 404.831C333.705 404.807 333.725 404.788 333.749 404.778Z" fill="#263238"/>
<path d="M357.133 310.301C359.056 315.223 361.802 319.701 363.344 324.803C364.845 329.488 365.285 334.449 364.632 339.326C361.897 357.175 338.65 367.843 322.321 362.351C314.516 359.689 307.714 353.352 305.644 345.23C303.109 335.27 308.421 325.7 311.653 316.607C313.437 311.517 314.323 306.156 314.273 300.764C314.273 296.042 313.988 291.258 314.938 286.568C315.625 283.241 317.895 273.566 330.147 269.669C338.946 266.902 347.86 271.707 351.958 280.062C356.721 289.8 353.321 300.542 357.133 310.301Z" fill="#263238"/>
<path d="M315.171 311.758C311.368 319.902 306.372 328.214 304.904 337.202C303.7 344.659 305.707 352.718 312.192 357.143C312.192 357.143 312.308 357.143 312.255 357.059C305.443 351.778 304.598 342.663 306.51 334.815C308.464 326.778 313.174 319.786 315.551 311.917C315.559 311.87 315.551 311.821 315.528 311.779C315.505 311.737 315.468 311.704 315.424 311.686C315.38 311.668 315.331 311.665 315.285 311.678C315.239 311.691 315.198 311.72 315.171 311.758Z" fill="#263238"/>
<path d="M313.491 311.283C310.608 321.919 301.82 330.369 301.26 341.744C301.26 341.871 301.461 341.913 301.472 341.744C302.211 330.39 312.034 322.331 313.702 311.283C313.724 311.178 313.523 311.157 313.491 311.283Z" fill="#263238"/>
<path d="M357.746 310.121C355.909 306.184 354.779 301.954 354.409 297.626C354.398 297.579 354.372 297.538 354.334 297.508C354.297 297.478 354.25 297.462 354.203 297.462C354.155 297.462 354.108 297.478 354.071 297.508C354.033 297.538 354.007 297.579 353.997 297.626C352.94 313.3 370.896 325.087 366.153 341.279C366.153 341.384 366.291 341.469 366.322 341.353C368.625 334.656 366.84 327.971 363.84 321.802C361.918 317.81 359.594 314.092 357.746 310.121Z" fill="#263238"/>
<path d="M354.113 295.239C354.113 294.944 353.637 295.028 353.659 295.313C354.085 301.185 355.981 306.854 359.172 311.801C360.735 314.24 362.647 316.427 364.157 318.898C365.815 321.613 367.083 324.528 368.477 327.348C368.484 327.363 368.497 327.375 368.513 327.381C368.529 327.387 368.546 327.387 368.562 327.38C368.577 327.373 368.589 327.36 368.595 327.344C368.601 327.328 368.6 327.311 368.593 327.295C366.787 321.898 363.946 317.599 360.703 313.005C357.067 307.721 354.803 301.616 354.113 295.239Z" fill="#263238"/>
<path d="M319.395 324.127C295.494 340.202 276.091 355.559 274.053 366.28C271.18 381.119 280.168 385.714 284.287 385.946C295.494 386.601 321.106 348.705 329.028 331.7C336.728 315.181 324.676 320.589 319.395 324.127Z" fill="#FFB400"/>
<path opacity="0.1" d="M329.028 331.699C321.096 348.704 295.494 386.622 284.287 385.946C281.425 385.788 276.228 383.527 274.264 377.201L331.214 321.813C331.933 323.387 331.489 326.429 329.028 331.699Z" fill="black"/>
<path d="M374.592 381.858C374.592 381.858 346.075 385.597 332.249 385.45C319.85 385.323 307.682 379.292 307.682 379.292L313.312 358.611C313.312 358.611 307.703 351.461 312.044 343.708C315.139 338.195 324.835 326.387 330 320.863C341.618 308.389 351.377 315.466 354.292 319.426C365.15 334.593 374.592 381.858 374.592 381.858Z" fill="#FFB400"/>
<path d="M330.654 356.985C328.025 356.901 325.392 357.039 322.786 357.397C321.487 357.598 320.209 357.862 318.92 358.157C318.276 358.305 317.631 358.421 316.987 358.548C316.321 358.69 315.639 358.744 314.959 358.707C314.945 358.707 314.932 358.712 314.922 358.722C314.912 358.732 314.906 358.745 314.906 358.759C314.906 358.773 314.912 358.787 314.922 358.797C314.932 358.807 314.945 358.812 314.959 358.812C315.587 358.93 316.222 359.001 316.86 359.024C317.486 359.022 318.111 358.972 318.73 358.876C320.05 358.686 321.36 358.432 322.68 358.231C325.342 357.83 327.961 357.418 330.665 357.228C330.781 357.217 330.781 356.985 330.654 356.985Z" fill="#263238"/>
<path d="M336.696 360.428C334.61 359.899 332.494 359.5 330.359 359.235C329.302 359.108 328.246 359.045 327.137 359.023H325.585C325.014 359.023 324.444 359.129 323.874 359.129C323.86 359.129 323.846 359.135 323.836 359.145C323.826 359.155 323.821 359.168 323.821 359.182C323.821 359.196 323.826 359.209 323.836 359.219C323.846 359.229 323.86 359.235 323.874 359.235C324.402 359.235 324.93 359.372 325.468 359.425L327.074 359.594L330.242 359.932C332.355 360.132 334.52 360.354 336.664 360.639C336.791 360.65 336.802 360.46 336.696 360.428Z" fill="#263238"/>
<path d="M356.362 323.272C375.744 340.076 389.569 363.545 388.978 378.838C388.386 393.942 383.2 392.22 381.711 392.051C372.617 390.995 353.194 347.944 347.48 330.507C341.766 313.069 351.536 319.121 356.362 323.272Z" fill="#FFB400"/>
<path d="M370.093 379.672C369.132 377.718 368.139 375.785 367.199 373.81L364.337 367.948C362.457 364.03 360.534 360.133 358.707 356.182C356.88 352.232 355.01 348.324 353.194 344.363C352.285 342.378 351.398 340.392 350.553 338.396C349.708 336.4 348.863 334.393 348.04 332.365C349.283 336.547 350.753 340.658 352.444 344.68C354.102 348.715 355.919 352.676 357.725 356.637C359.531 360.597 361.538 364.463 363.587 368.318C365.636 372.173 367.791 375.986 370.093 379.672Z" fill="#263238"/>
<path d="M349.951 337.53C349.608 336.832 349.223 336.154 348.8 335.502C348.589 335.185 348.388 334.857 348.166 334.541C347.945 334.224 347.733 333.896 347.469 333.59C347.613 334.375 347.915 335.122 348.356 335.787C348.776 336.461 349.317 337.052 349.951 337.53Z" fill="#263238"/>
<path d="M332.376 329.724C332.376 329.724 345.42 319.31 352.243 319.553L358.021 324.707C358.021 324.707 359.922 325.341 360.503 324.137C361.971 321.158 362.277 313.955 356.088 309.265C350.416 304.967 338.766 305.822 331.014 307.85C323.567 309.793 319.448 314.187 321.73 319.025C324.011 323.862 332.376 329.724 332.376 329.724Z" fill="#FFB400"/>
<path opacity="0.1" d="M331.637 327.443C331.637 327.443 325.595 321.19 324.729 317.567C323.863 313.945 331.066 310.512 335.777 309.171C343.012 307.058 347.934 307.565 351.979 311.431C356.024 315.297 331.637 327.443 331.637 327.443Z" fill="black"/>
<path d="M342.157 316.701C342.04 317.969 336.611 324.369 330.971 324.876C329.134 325.035 328.479 317.398 328.479 317.398L328.215 316.68L324.497 306.678L335.555 297.246L337.171 295.979C337.171 295.979 338.006 298.788 339.009 302.316C339.062 302.474 339.104 302.643 339.157 302.812C339.21 302.981 339.284 303.192 339.326 303.383C339.484 303.9 339.643 304.439 339.791 304.967C339.939 305.495 340.012 305.77 340.118 306.203L340.456 307.481C341.231 310.512 341.799 313.593 342.157 316.701Z" fill="#FFC4C0"/>
<path d="M339.009 302.284C338.361 305.317 337.059 308.173 335.195 310.651C333.331 313.13 330.949 315.173 328.215 316.638L324.497 306.636L335.555 297.204L337.171 295.936C337.171 295.936 338.006 298.788 339.009 302.284Z" fill="#263238"/>
<path d="M313.058 285.153C305.77 302.411 315.287 308.727 319.005 310.291C322.384 311.716 334.066 316.131 343.107 299.728C352.148 283.326 346.424 274.475 338.882 270.81C331.341 267.145 320.452 267.905 313.058 285.153Z" fill="#FFC4C0"/>
<path d="M317.283 284.107C317.701 284.209 318.124 284.29 318.55 284.35C318.989 284.498 319.464 284.498 319.902 284.35C320.029 284.276 320.127 284.162 320.183 284.027C320.238 283.891 320.247 283.741 320.209 283.6C320.09 283.33 319.901 283.096 319.661 282.923C319.421 282.751 319.14 282.645 318.846 282.618C318.263 282.468 317.644 282.543 317.114 282.829C316.999 282.901 316.906 283.004 316.848 283.127C316.79 283.25 316.769 283.387 316.787 283.522C316.804 283.657 316.861 283.784 316.949 283.888C317.037 283.991 317.153 284.067 317.283 284.107Z" fill="#263238"/>
<path d="M329.493 288.237C329.126 288.016 328.773 287.772 328.436 287.508C328.025 287.223 327.676 287.044 327.486 286.558C327.451 286.416 327.462 286.268 327.517 286.133C327.572 285.998 327.668 285.884 327.792 285.808C328.067 285.699 328.366 285.666 328.657 285.713C328.949 285.759 329.223 285.883 329.45 286.072C329.961 286.383 330.337 286.872 330.507 287.445C330.538 287.577 330.531 287.715 330.486 287.843C330.441 287.971 330.361 288.083 330.254 288.166C330.147 288.25 330.019 288.301 329.884 288.313C329.749 288.326 329.613 288.299 329.493 288.237Z" fill="#263238"/>
<path d="M325.564 290.518C325.564 290.518 325.638 290.613 325.616 290.666C325.067 291.817 324.624 293.222 325.511 294.077C325.511 294.077 325.511 294.162 325.511 294.141C324.264 293.401 324.867 291.521 325.564 290.518Z" fill="#263238"/>
<path d="M327.148 289.758C329.091 290.445 327.581 294.268 325.785 293.645C323.99 293.022 325.521 289.177 327.148 289.758Z" fill="#263238"/>
<path d="M327.845 290.233C328.088 290.581 328.267 291.099 328.658 291.289C329.049 291.479 329.609 291.289 330.074 290.993C330.074 290.993 330.137 290.993 330.074 291.067C329.799 291.807 329.218 292.451 328.394 292.25C328.04 292.11 327.75 291.844 327.58 291.502C327.41 291.161 327.373 290.769 327.475 290.402C327.518 290.233 327.718 290.117 327.845 290.233Z" fill="#263238"/>
<path d="M318.772 287.572C318.772 287.519 318.656 287.572 318.635 287.646C318.212 288.85 317.579 290.16 316.301 290.138C316.301 290.138 316.248 290.202 316.301 290.212C317.674 290.529 318.561 288.786 318.772 287.572Z" fill="#263238"/>
<path d="M318.181 285.923C316.322 285.036 314.695 288.817 316.417 289.641C318.138 290.465 319.744 286.663 318.181 285.923Z" fill="#263238"/>
<path d="M317.283 285.829C316.892 285.903 316.438 286.135 316.068 286.008C315.699 285.882 315.519 285.322 315.424 284.815C315.424 284.762 315.371 284.815 315.35 284.815C315.012 285.533 314.928 286.389 315.561 286.822C316.195 287.255 316.871 286.822 317.357 286.156C317.463 286.008 317.441 285.797 317.283 285.829Z" fill="#263238"/>
<path d="M321.793 300.066C321.423 300.277 321.032 300.605 320.568 300.531C320.112 300.4 319.687 300.177 319.321 299.876C319.321 299.876 319.237 299.876 319.258 299.929C319.372 300.215 319.562 300.465 319.808 300.651C320.054 300.837 320.346 300.953 320.652 300.985C320.921 300.986 321.184 300.906 321.406 300.756C321.629 300.605 321.8 300.39 321.899 300.14C321.941 300.087 321.856 300.034 321.793 300.066Z" fill="#263238"/>
<path d="M318.107 294.067C318.107 294.067 317.283 295.799 317.051 296.655C317.051 296.739 317.22 296.845 317.505 296.95C318.196 297.323 318.977 297.495 319.76 297.449C320.544 297.402 321.299 297.138 321.941 296.686C322.036 296.623 321.941 296.496 321.856 296.528C320.527 296.923 319.105 296.883 317.801 296.412C317.801 296.158 319.311 293.486 319.184 293.433C318.492 293.276 317.781 293.215 317.072 293.254C318.688 289.589 320.885 286.209 322.437 282.533C322.49 282.407 322.311 282.301 322.237 282.407C319.776 285.956 317.674 289.742 315.963 293.708C315.751 294.183 317.716 294.099 318.107 294.067Z" fill="#263238"/>
<path d="M317.653 296.655C317.907 297.506 318.372 298.28 319.005 298.904C319.366 299.222 319.815 299.425 320.293 299.485C321.349 299.601 321.709 298.735 321.825 297.922C321.871 297.487 321.871 297.048 321.825 296.612C320.474 297.073 319.012 297.087 317.653 296.655Z" fill="#263238"/>
<path d="M319.005 298.904C319.366 299.223 319.815 299.425 320.293 299.485C321.349 299.601 321.708 298.735 321.825 297.922C321.313 297.747 320.756 297.748 320.245 297.926C319.734 298.104 319.297 298.449 319.005 298.904Z" fill="#FF9ABB"/>
<path d="M341.671 299.074C338.407 298.683 339.463 291.057 339.463 291.057C339.463 291.057 326.387 285.132 328.162 273.683C324.724 277.493 320.143 280.087 315.107 281.076C315.107 281.076 320.568 267.778 330.876 267.947C330.876 267.947 342.494 266.986 347.342 278.319C352.264 289.916 343.899 299.369 341.671 299.074Z" fill="#263238"/>
<path d="M328.331 272.848C327.719 274.538 327.471 276.337 327.602 278.129C327.707 279.933 328.185 281.695 329.007 283.305C329.205 283.71 329.431 284.102 329.683 284.477L330.042 285.047C330.179 285.237 330.316 285.406 330.464 285.575C330.75 285.924 331.024 286.283 331.33 286.632C331.637 286.98 331.975 287.255 332.302 287.55L332.799 288.005L333.348 288.395L334.404 289.166C335.175 289.621 335.957 290.022 336.749 290.423C336.052 289.874 335.312 289.367 334.636 288.85L333.643 288.005L333.158 287.582C332.999 287.424 332.862 287.265 332.714 287.107L331.827 286.167C331.552 285.839 331.309 285.48 331.045 285.111L330.654 284.604L330.327 284.054C330.099 283.693 329.891 283.319 329.704 282.935C328.921 281.408 328.41 279.757 328.193 278.055C328.079 277.201 328.033 276.339 328.056 275.478C328.078 274.596 328.17 273.716 328.331 272.848Z" fill="#263238"/>
<path d="M339.548 297.774C339.548 297.774 345.23 293.476 347.311 295.662C349.391 297.848 343.846 304.978 340.53 305.168C340.104 305.216 339.674 305.177 339.263 305.054C338.853 304.931 338.472 304.726 338.144 304.452C337.815 304.177 337.545 303.839 337.351 303.457C337.157 303.076 337.042 302.659 337.013 302.232L339.548 297.774Z" fill="#FFC4C0"/>
<path d="M345.674 297.679V297.764C343.318 297.933 341.607 299.506 340.192 301.26C340.379 301.091 340.601 300.965 340.842 300.89C341.083 300.815 341.337 300.794 341.587 300.827C341.838 300.86 342.077 300.947 342.291 301.082C342.504 301.217 342.685 301.396 342.822 301.608C342.822 301.661 342.822 301.735 342.737 301.703C342.409 301.469 342.016 301.342 341.613 301.342C341.209 301.342 340.816 301.469 340.488 301.703C339.934 302.09 339.427 302.54 338.977 303.045C338.819 303.193 338.513 302.981 338.65 302.791C339.463 300.066 342.737 297.024 345.674 297.679Z" fill="#263238"/>
<path d="M331.637 327.443C331.637 327.443 342.6 313.025 353.141 311.6L352.243 319.51C352.243 319.51 343.456 319.648 332.376 329.682L331.637 327.443Z" fill="#FFB400"/>
<path d="M355.084 319.711C353.166 319.552 351.236 319.804 349.423 320.451C342.188 322.151 334.805 328.087 334.805 328.087L332.693 330.041L332.461 330.252L332.197 330.115C328.658 328.193 325.099 323.714 324.433 322.838C326.9 325.294 329.631 327.469 332.577 329.323L332.08 329.407L334.193 327.4C334.932 326.756 343.012 321.443 349.275 319.933C349.74 319.806 350.236 319.722 350.712 319.627C351.187 319.532 351.683 319.489 352.169 319.468C353.148 319.384 354.133 319.467 355.084 319.711Z" fill="#263238"/>
<path d="M358.021 324.708C355.887 323.238 353.946 321.506 352.243 319.553C353.311 320.279 354.334 321.069 355.306 321.919C356.272 322.788 357.179 323.719 358.021 324.708Z" fill="#263238"/>
<path d="M335.238 325.764C336.115 328.995 336.712 332.295 337.023 335.629C337.256 337.952 337.023 346.381 334.404 346.275C331.785 346.169 335.587 340.455 335.978 335.998C336.369 331.541 334.921 328.404 334.573 325.774L335.238 325.764Z" fill="#263238"/>
<path d="M327.908 325.648C326.838 328.514 326.018 331.469 325.458 334.478C325.046 336.59 324.56 344.247 326.937 344.374C329.313 344.501 326.356 338.987 326.377 334.868C326.398 330.749 327.961 328.045 328.489 325.69L327.908 325.648Z" fill="#263238"/>
<path d="M278.024 344.691C278.784 337.552 280.474 327.581 282.946 325.426C285.417 323.272 294.976 315.561 297.733 314.505C300.489 313.449 312.805 308.305 315.128 309.552C316.998 310.555 314.98 315.445 309.129 317.948C305.956 319.383 302.874 321.009 299.898 322.818C298.398 323.525 294.902 328.553 295.969 330.707C296.592 331.964 300.373 333.358 302.665 332.228C304.957 331.098 305.38 326.493 307.946 324.233C310.513 321.973 315.223 322.12 315.53 323.346C315.836 324.571 314.315 325.247 312.065 329.619C310.608 332.429 310.724 339.062 307.386 343.92C305.697 346.794 304.184 349.767 302.855 352.824L278.024 344.691Z" fill="#FFC4C0"/>
<path d="M310.386 322.194C311.237 322.044 312.028 321.656 312.667 321.074C312.925 320.811 313.098 320.476 313.164 320.113C313.195 319.914 313.195 319.711 313.164 319.511C313.148 319.303 313.062 319.105 312.921 318.951C312.868 318.951 312.921 318.867 312.921 318.951C312.921 319.036 313.079 319.131 313.143 319.226C313.2 319.309 313.249 319.398 313.29 319.49C313.365 319.675 313.405 319.872 313.407 320.071C313.407 320.506 313.258 320.927 312.984 321.264C312.658 321.633 312.25 321.92 311.794 322.103C311.337 322.286 310.845 322.361 310.354 322.321L310.386 322.194Z" fill="#263238"/>
<path d="M282.946 325.425C285.058 321.803 290.656 315.222 296.307 312.835C300.12 311.23 313.65 317.271 313.343 319.838C313.037 322.405 310.766 322.468 307.386 322.183C306.151 322.077 299.592 319.965 298.525 321.359C297.004 323.366 295.208 330.115 295.208 330.115L282.946 325.425Z" fill="#FFC4C0"/>
<path d="M312.984 318.846C311.252 316.184 307.587 314.843 303.954 313.818V313.903C304.883 314.167 310.83 316.67 312.974 318.899C312.963 318.92 312.995 318.877 312.984 318.846Z" fill="#263238"/>
<path d="M282.946 325.426C285.058 321.803 290.656 315.223 296.307 312.836C300.12 311.23 310.925 319.173 310.618 321.74C310.312 324.306 307.059 324.602 303.404 323.461C302.221 323.102 298.218 320.472 297.162 321.866C295.631 323.873 291.881 328.858 291.881 328.858L282.946 325.426Z" fill="#FFC4C0"/>
<path d="M294.047 325.774C294.385 325.204 294.511 325.003 294.86 324.443C295.208 323.884 295.578 323.324 295.969 322.785C296.274 322.288 296.664 321.849 297.12 321.486C297.595 321.196 298.15 321.067 298.704 321.116C299.956 321.338 301.147 321.82 302.2 322.532C303.415 323.165 305.908 324.19 307.788 323.936C308.303 323.889 308.803 323.734 309.256 323.482C309.603 323.315 309.902 323.06 310.122 322.743C310.893 321.328 309.826 319.775 308.749 318.698C306.626 316.737 304.169 315.173 301.493 314.082C300.859 313.797 300.215 313.522 299.571 313.258C298.854 312.901 298.068 312.703 297.268 312.677C295.958 312.677 293.856 314.114 293.202 314.536C293.202 314.536 293.117 314.483 293.202 314.452C293.983 313.924 295.927 312.234 298.039 312.265C298.815 312.357 299.569 312.582 300.268 312.931C301.007 313.226 301.746 313.543 302.475 313.881C303.897 314.524 305.267 315.277 306.573 316.131C307.88 316.915 309.033 317.932 309.974 319.131C310.368 319.667 310.608 320.3 310.67 320.962C310.731 321.625 310.611 322.291 310.323 322.891C310.056 323.272 309.708 323.59 309.305 323.822C308.902 324.053 308.452 324.194 307.988 324.232C307.439 324.311 306.88 324.311 306.33 324.232C305.091 324.005 303.87 323.691 302.676 323.292C301.514 322.87 300.458 322.141 299.264 321.813C298.984 321.728 298.689 321.699 298.397 321.728C298.105 321.757 297.822 321.843 297.564 321.982C297.088 322.321 296.668 322.73 296.317 323.197C295.557 323.999 294.871 324.869 294.268 325.795C294.047 326.144 293.909 326.017 294.047 325.774Z" fill="#263238"/>
<path d="M281.372 328.573C282.143 326.852 283.315 319.86 284.541 317.684C285.766 315.508 291.702 307.935 294.575 308.178C298.176 308.463 294.649 315.065 292.853 317.8C291.057 320.536 291.522 325.046 291.522 325.046L281.372 328.573Z" fill="#FFC4C0"/>
<path d="M291.628 325.785C291.55 327.523 291.913 329.253 292.684 330.813C293.04 331.603 293.449 332.369 293.909 333.104C294.383 333.843 294.905 334.548 295.472 335.217C296.558 336.467 297.484 337.847 298.229 339.325C298.931 340.849 299.446 342.452 299.761 344.1C299.825 342.37 299.553 340.645 298.958 339.019C298.324 337.394 297.421 335.887 296.286 334.562C295.205 333.296 294.257 331.923 293.455 330.464C292.588 329.018 291.97 327.436 291.628 325.785Z" fill="#263238"/>
<path d="M285.47 385.291C292.431 384.045 296.507 372.131 303.616 351.186C304.862 347.511 285.597 326.081 283.252 329.503C280.295 333.812 272.859 357.439 272.236 363.819C271.032 376.398 277.337 386.749 285.47 385.291Z" fill="#FFC4C0"/>
<path d="M299.887 362.868L276.366 341.902C276.366 341.902 270.768 361.062 271.708 368.952C272.648 376.842 275.795 385.735 285.343 385.851C292.494 385.883 299.887 362.868 299.887 362.868Z" fill="#FFB400"/>
<path d="M293.244 378.363C294.004 377.18 294.68 375.934 295.356 374.687C296.032 373.441 296.613 372.163 297.194 370.885C297.775 369.607 298.314 368.287 298.768 366.956C299.268 365.63 299.65 364.262 299.908 362.868C299.37 364.168 298.789 365.446 298.208 366.724L296.476 370.558C295.916 371.846 295.335 373.124 294.807 374.434C294.279 375.744 293.719 377.032 293.244 378.363Z" fill="#263238"/>
<path d="M295.187 366.902C294.047 365.741 292.79 364.684 291.575 363.597C290.36 362.509 289.135 361.484 287.899 360.428C285.417 358.316 282.935 356.203 280.422 354.091C279.735 353.531 279.038 352.961 278.309 352.411C277.58 351.862 276.735 351.355 275.996 350.721C275.943 350.669 275.869 350.721 275.922 350.806C276.524 351.334 277.052 351.957 277.644 352.496C278.235 353.035 278.869 353.615 279.492 354.154C280.728 355.21 281.953 356.267 283.199 357.323C285.671 359.435 288.153 361.548 290.698 363.586C292.135 364.737 293.55 365.941 295.05 367.008C295.064 367.026 295.085 367.038 295.107 367.041C295.13 367.044 295.153 367.038 295.171 367.024C295.19 367.01 295.201 366.989 295.204 366.966C295.207 366.944 295.201 366.921 295.187 366.902Z" fill="#263238"/>
<path d="M325.141 326.144L334.647 355.644C334.757 355.803 334.822 355.989 334.833 356.182C334.845 356.375 334.803 356.568 334.713 356.739C334.622 356.91 334.487 357.053 334.32 357.153C334.154 357.252 333.964 357.303 333.77 357.302L318.286 358.358C317.812 358.353 317.348 358.214 316.95 357.956C316.552 357.698 316.235 357.332 316.037 356.9L306.531 327.411C306.151 326.545 306.531 325.806 307.408 325.743L322.881 324.686C323.356 324.693 323.821 324.833 324.22 325.091C324.62 325.348 324.939 325.713 325.141 326.144Z" fill="#37474F"/>
<path d="M323.303 326.271L332.809 355.771C332.92 355.93 332.984 356.116 332.996 356.309C333.007 356.503 332.966 356.695 332.875 356.866C332.785 357.038 332.649 357.181 332.483 357.28C332.316 357.379 332.126 357.431 331.932 357.429L316.449 358.485C315.974 358.48 315.51 358.341 315.112 358.083C314.714 357.825 314.397 357.459 314.199 357.028L304.693 327.528C304.583 327.369 304.518 327.182 304.507 326.989C304.495 326.796 304.537 326.603 304.627 326.432C304.718 326.261 304.853 326.118 305.02 326.019C305.186 325.92 305.376 325.868 305.57 325.87L321.043 324.813C321.519 324.82 321.983 324.96 322.382 325.218C322.782 325.475 323.101 325.84 323.303 326.271Z" fill="#455A64"/>
<path d="M319.142 327.918C319.164 328.179 319.262 328.426 319.425 328.631C319.588 328.835 319.808 328.986 320.056 329.066C320.305 329.145 320.572 329.149 320.823 329.077C321.074 329.004 321.298 328.859 321.466 328.66C321.635 328.46 321.74 328.215 321.77 327.956C321.799 327.696 321.75 327.434 321.63 327.202C321.51 326.97 321.324 326.778 321.096 326.652C320.867 326.526 320.606 326.47 320.346 326.492C319.997 326.522 319.675 326.689 319.449 326.956C319.223 327.223 319.113 327.57 319.142 327.918Z" fill="#263238"/>
<path d="M383.824 391.882C377.064 392.812 368.635 387.562 346.793 371.614C343.773 369.417 353.606 343.888 356.954 346.085C361.179 348.842 376.948 360.46 377.993 361.453C386.844 369.85 388.439 391.259 383.824 391.882Z" fill="#FFC4C0"/>
<path d="M364.812 353.806C364.812 353.806 358.591 345.071 353.901 341.501C348.934 337.905 343.167 335.571 337.097 334.699C330.549 333.738 314.062 335.935 313.861 340.793C313.681 345.198 330.433 342.103 330.433 342.103C330.433 342.103 312.836 342.441 313.597 347.775C314.357 353.109 333.591 348.409 333.591 348.409C333.591 348.409 315.519 349.169 317.177 354.545C318.424 358.612 336.083 355.337 336.083 355.337C336.083 355.337 320.557 356.098 321.666 360.333C322.881 365.012 339.379 363.016 339.379 363.016C344.005 373.303 350.627 376.208 355.444 377.803C356.595 378.194 364.812 353.806 364.812 353.806Z" fill="#FFC4C0"/>
<path d="M336.485 341.596C334.372 341.596 332.323 341.512 330.264 341.66C328.204 341.808 326.134 342.029 324.095 342.367C321.418 342.77 318.795 343.478 316.28 344.48C320.874 343.054 328.257 342.367 330.316 342.251C332.376 342.135 334.436 341.85 336.495 341.702C336.548 341.67 336.537 341.596 336.485 341.596Z" fill="#263238"/>
<path d="M337.161 349.032C334.52 349.106 331.88 349.032 329.25 349.265C326.62 349.497 324.148 349.856 321.539 350.226C321.339 350.226 321.413 350.353 321.624 350.331C324.243 350.067 326.683 350.025 329.303 349.793C331.922 349.56 334.584 349.233 337.171 349.096C337.203 349.096 337.203 349.032 337.161 349.032Z" fill="#263238"/>
<path d="M338.882 355.316C334.818 355.327 330.766 355.756 326.789 356.594C326.588 356.594 326.704 356.753 326.916 356.721C330.919 356.225 334.056 355.802 338.851 355.464C338.956 355.454 338.967 355.327 338.882 355.316Z" fill="#263238"/>
<path d="M364.812 350.331L356.204 381.7C356.204 381.7 379.293 395.293 384.394 391.692C389.495 388.09 386.158 369.987 380.391 363.079C377.962 360.206 364.812 350.331 364.812 350.331Z" fill="#FFB400"/>
<path d="M364.506 351.377L364.844 350.32H364.759C366.935 352.105 369.121 353.869 371.287 355.665C373.452 357.46 375.606 359.256 377.624 361.157C378.662 362.079 379.639 363.066 380.549 364.114C381.42 365.191 382.197 366.339 382.873 367.547C384.211 370.01 385.152 372.669 385.661 375.426C385.438 372.588 384.671 369.82 383.401 367.272C382.767 365.991 381.999 364.78 381.109 363.66C380.192 362.569 379.204 361.539 378.152 360.576C376.039 358.675 373.864 356.9 371.646 355.168C369.428 353.436 367.125 351.799 364.78 350.236H364.706V350.31L364.506 351.377Z" fill="#263238"/>
<path d="M369.85 358.115C369.322 359.657 368.921 361.283 368.488 362.815C368.055 364.346 367.632 365.983 367.231 367.536C366.428 370.705 365.646 373.873 364.907 377.042C364.706 377.918 364.506 378.785 364.316 379.651C364.126 380.517 364.03 381.541 363.819 382.471C363.819 382.545 363.914 382.576 363.935 382.471C364.147 381.7 364.464 380.95 364.696 380.189C364.928 379.429 365.139 378.584 365.351 377.781C365.773 376.207 366.185 374.613 366.586 373.049C367.389 369.881 368.181 366.712 368.878 363.544C369.269 361.737 369.723 359.942 370.009 358.125C370.014 358.113 370.016 358.099 370.016 358.086C370.015 358.072 370.011 358.059 370.004 358.047C369.997 358.036 369.987 358.026 369.975 358.019C369.964 358.012 369.95 358.008 369.937 358.007C369.923 358.006 369.91 358.008 369.897 358.014C369.885 358.019 369.874 358.028 369.865 358.038C369.857 358.049 369.851 358.061 369.848 358.075C369.846 358.088 369.846 358.102 369.85 358.115Z" fill="#263238"/>
<path d="M356.943 378.954C356.878 379.925 356.737 380.889 356.521 381.837L356.362 381.446C358.111 382.391 359.779 383.48 361.348 384.7C359.429 384.116 357.62 383.22 355.993 382.049L355.76 381.89C356.079 380.882 356.474 379.901 356.943 378.954Z" fill="#263238"/>
<path d="M38.9106 336.316C38.9106 336.316 15.558 377.614 15.5475 377.645C11.7874 385.968 8.65047 393.34 7.38302 397.301C7.37844 397.322 7.37844 397.344 7.38302 397.365C6.98529 398.261 6.80091 399.237 6.84436 400.216C6.84436 400.216 6.84436 400.269 6.84436 400.29C8.56597 403.079 74.2406 434.997 76.9022 435.335C79.5638 435.673 80.7573 428.111 79.1942 424.836C77.631 421.562 57.9434 398.104 57.9434 398.104L80.8735 356.648L38.9106 336.316Z" fill="#EB9481"/>
<path d="M75.8566 435.102C73.1949 434.754 8.56597 403.078 6.84436 400.248C6.8409 400.223 6.8409 400.198 6.84436 400.174C6.80091 399.194 6.98529 398.218 7.38302 397.322C7.37715 397.301 7.37715 397.279 7.38302 397.259C8.65047 393.298 11.7979 385.926 15.5369 377.592C15.5369 377.592 19.4765 370.378 21.0397 367.875L62.8125 389.517L57.9434 398.114C57.9434 398.114 76.5748 421.351 78.138 424.604C79.7011 427.857 78.5816 435.451 75.8566 435.102Z" fill="black"/>
<path d="M77.05 434.204C74.3673 433.803 8.93561 400.089 7.26681 397.237C6.61196 396.181 10.9635 386.337 16.5719 374.624L16.7515 374.254L59.2108 395.537L58.82 396.244C58.82 396.244 78.0957 420.347 79.606 423.706C81.1164 427.064 79.7328 434.627 77.05 434.204Z" fill="#6864ED"/>
<path d="M77.6204 431.289C66.7309 425.332 22.2437 402.349 11.0797 397.301C10.9846 397.301 10.9529 397.301 11.0797 397.364C21.7368 403.501 66.4141 426.124 77.6204 431.469C77.7682 431.585 77.8527 431.416 77.6204 431.289Z" fill="white"/>
<path d="M62.3055 398.187C58.3764 395.135 52.7258 393.065 47.8144 394.448C47.6243 394.512 47.7088 394.776 47.8144 394.808C52.6518 395.604 57.3897 396.918 61.9464 398.726C61.9818 398.75 62.0214 398.766 62.0631 398.774C62.1048 398.783 62.1478 398.782 62.1894 398.774C62.2311 398.766 62.2708 398.749 62.3061 398.726C62.3414 398.702 62.3717 398.672 62.3953 398.636C62.4189 398.601 62.4352 398.561 62.4435 398.52C62.4517 398.478 62.4517 398.435 62.4434 398.393C62.435 398.352 62.4186 398.312 62.3949 398.277C62.3713 398.241 62.3409 398.211 62.3055 398.187Z" fill="#263238"/>
<path d="M64.4602 401.683C60.5417 398.642 54.891 396.571 49.9796 397.955C49.7895 398.008 49.8635 398.282 49.9796 398.304C54.8334 399.088 59.589 400.391 64.1644 402.19C64.2285 402.206 64.2959 402.2 64.3565 402.175C64.4172 402.149 64.4679 402.104 64.5011 402.047C64.5343 401.99 64.5483 401.924 64.5409 401.858C64.5335 401.793 64.5052 401.732 64.4602 401.683Z" fill="#263238"/>
<path d="M66.6253 405.191C62.7385 402.192 57.0456 400.079 52.1765 401.463C51.9864 401.516 52.0709 401.78 52.2293 401.811C57.067 402.606 61.805 403.92 66.3613 405.73C66.4269 405.738 66.4935 405.726 66.5518 405.695C66.61 405.663 66.657 405.614 66.6861 405.555C66.7153 405.496 66.7251 405.429 66.7142 405.363C66.7032 405.298 66.6722 405.238 66.6253 405.191Z" fill="#263238"/>
<path d="M23.7752 387.14C20.258 382.323 12.7696 387.794 16.2973 392.611C19.825 397.427 27.3029 391.966 23.7752 387.14Z" fill="white"/>
<path opacity="0.1" d="M61.6823 399.846L66.3823 429.23C69.8436 431.069 73.3972 432.729 77.0289 434.204C79.701 434.627 81.0741 427.012 79.5849 423.642C78.4653 421.202 67.1323 406.701 61.6823 399.846Z" fill="black"/>
<path d="M79.2575 432.378C80.1975 433.434 77.9161 437.236 76.9127 437.11C75.9093 436.983 4.72137 399.921 3.65461 399.023C2.58785 398.125 5.2706 394.006 6.82321 394.513C8.37583 395.02 79.2575 432.378 79.2575 432.378Z" fill="#263238"/>
<path d="M20.9446 364.062L68.0195 389.189C68.0195 389.189 127.42 304.524 128.603 282.291C130.251 251.566 104.015 154.047 104.015 154.047L62.1787 153.762C62.1787 153.762 79.1941 254.101 77.8105 271.169C77.0711 280.115 20.9446 364.062 20.9446 364.062Z" fill="#263238"/>
<path d="M72.1071 379.462C69.6884 377.709 47.3814 364.791 30.3976 356.532C30.3866 356.526 30.3743 356.522 30.3617 356.52C30.3491 356.519 30.3362 356.52 30.324 356.523C30.3117 356.526 30.3003 356.532 30.2902 356.54C30.2802 356.548 30.2719 356.558 30.2656 356.569C30.2594 356.58 30.2554 356.592 30.2539 356.605C30.2523 356.617 30.2533 356.63 30.2568 356.642C30.2602 356.655 30.266 356.666 30.2739 356.676C30.2817 356.686 30.2915 356.695 30.3026 356.701C35.4569 360.102 68.7589 378.342 71.9909 379.642C72.0965 379.684 72.2444 379.536 72.1071 379.462Z" fill="#37474F"/>
<path d="M83.6091 249.739C81.6656 235.058 79.5216 220.408 77.0817 205.801C74.6419 191.194 72.0542 176.481 68.9912 161.926C68.611 160.152 68.2237 158.392 67.8294 156.645C67.8239 156.618 67.8129 156.591 67.7972 156.568C67.7814 156.544 67.7612 156.524 67.7377 156.508C67.7141 156.493 67.6877 156.482 67.66 156.476C67.6322 156.471 67.6037 156.471 67.5759 156.476C67.5482 156.482 67.5218 156.493 67.4983 156.509C67.4748 156.524 67.4546 156.545 67.4389 156.568C67.4232 156.592 67.4123 156.618 67.4068 156.646C67.4013 156.674 67.4014 156.702 67.4069 156.73C69.9841 171.168 72.6879 185.585 75.001 200.034C77.3141 214.483 79.6377 228.974 81.5811 243.529C82.067 247.12 82.5423 250.718 83.007 254.323C83.5801 258.034 83.9328 261.776 84.0632 265.529C84.1283 269.113 83.5229 272.677 82.2782 276.038C80.9502 279.322 79.335 282.482 77.4514 285.481C69.889 298.282 35.9849 354.24 35.1083 355.866C35.1083 355.972 35.2033 356.088 35.2667 355.982C43.3995 343.308 68.6321 303.046 76.3107 290.033C79.775 284.161 83.7041 278.214 84.8765 271.37C86.0594 264.251 84.5385 256.805 83.6091 249.739Z" fill="#37474F"/>
<path d="M71.5472 364.062C71.5472 364.062 71.0825 411.792 71.0825 411.824C71.3254 420.949 71.7162 428.945 72.2972 433.074C72.2922 433.095 72.2922 433.117 72.2972 433.138C72.3302 434.116 72.5868 435.073 73.0471 435.937L73.1104 435.989C75.8777 437.753 148.893 437.87 151.438 437.046C153.984 436.222 151.755 428.86 148.925 426.6C146.094 424.34 118.147 411.813 118.147 411.813V364.115L71.5472 364.062Z" fill="#EB9481"/>
<path d="M71.1881 402.022C71.1881 402.022 71.0931 411.792 71.0931 411.823C71.336 420.949 71.7268 428.945 72.3077 433.074C72.3028 433.095 72.3028 433.117 72.3077 433.138C72.4498 434.096 72.7015 435.035 73.0576 435.937L73.121 435.989C75.8882 437.753 148.903 437.869 151.449 437.046C153.994 436.222 151.766 428.86 148.935 426.6C146.104 424.339 118.157 411.813 118.157 411.813V401.864L71.1881 402.022Z" fill="black"/>
<path d="M151.459 436.93C148.882 437.743 75.2862 436.455 72.519 434.617C71.4628 433.941 71.0191 423.21 70.8607 410.229V409.817L118.39 410.124V410.926C118.39 410.926 146.337 424.023 149.167 426.357C151.998 428.692 154.068 436.117 151.459 436.93Z" fill="#6864ED"/>
<path d="M150.699 434.056C138.299 433.528 88.2352 432.599 75.941 433C75.846 433 75.8354 433.074 75.941 433.074C88.2141 433.866 138.257 434.394 150.699 434.236C150.963 434.257 150.963 434.067 150.699 434.056Z" fill="white"/>
<path d="M122.319 411.137C117.46 410.144 111.472 410.788 107.68 414.2C107.532 414.337 107.68 414.538 107.881 414.496C112.574 413.068 117.408 412.15 122.298 411.76C122.371 411.749 122.438 411.713 122.488 411.658C122.537 411.602 122.566 411.532 122.568 411.457C122.571 411.383 122.547 411.31 122.502 411.252C122.456 411.193 122.391 411.153 122.319 411.137Z" fill="#263238"/>
<path d="M125.815 413.323C120.946 412.33 114.957 412.975 111.165 416.386C111.017 416.513 111.165 416.724 111.366 416.682C116.059 415.254 120.893 414.337 125.783 413.946C125.857 413.937 125.925 413.902 125.976 413.848C126.027 413.793 126.056 413.722 126.06 413.648C126.064 413.574 126.041 413.5 125.997 413.441C125.952 413.382 125.887 413.34 125.815 413.323Z" fill="#263238"/>
<path d="M129.279 415.51C124.41 414.517 118.421 415.161 114.63 418.573C114.492 418.7 114.63 418.911 114.841 418.869C119.541 417.438 124.382 416.521 129.279 416.133C129.352 416.12 129.418 416.081 129.465 416.024C129.513 415.967 129.538 415.896 129.538 415.821C129.538 415.747 129.513 415.676 129.465 415.619C129.418 415.562 129.352 415.523 129.279 415.51Z" fill="#263238"/>
<path d="M152.653 434.31C153.963 434.838 153.604 439.253 152.653 439.591C151.702 439.929 71.4627 438.165 70.1002 437.837C68.7377 437.51 69.3292 432.62 70.9241 432.398C72.5189 432.176 152.653 434.31 152.653 434.31Z" fill="#263238"/>
<path d="M82.8908 418.277C77.6098 415.51 73.3005 423.727 78.5921 426.494C83.8837 429.261 88.1824 421.044 82.8908 418.277Z" fill="white"/>
<path d="M103.476 153.983C103.202 154.85 88.1613 196.052 86.746 196.707C85.1406 197.446 119.964 255.928 122.023 283.104C123.333 300.479 120.756 398.822 120.756 398.822H69.8468C69.8468 398.822 72.2866 310.407 73.4484 282.396C73.9026 271.528 38.4987 217.44 38.0657 183.768C37.9284 173.154 45.5541 153.751 45.5541 153.751L103.476 153.983Z" fill="#263238"/>
<path d="M73.7441 281.647C73.7441 281.193 73.385 281.055 73.3533 281.51C72.2021 296.677 71.938 311.749 71.2409 326.926C70.5438 342.104 70.9346 345.716 70.2587 360.862C69.8784 369.428 70.2587 378.025 70.0369 386.602C70.0369 386.63 70.048 386.656 70.0678 386.676C70.0876 386.696 70.1145 386.707 70.1425 386.707C70.1705 386.707 70.1974 386.696 70.2172 386.676C70.237 386.656 70.2481 386.63 70.2481 386.602C71.8007 371.561 73.7336 290.234 73.7441 281.647Z" fill="#37474F"/>
<path d="M122.013 283.706C121.94 279.964 121.587 276.232 120.956 272.542C120.244 268.955 119.183 265.446 117.788 262.065C114.968 254.977 111.651 248.059 108.472 241.131C105.293 234.202 101.966 227.115 98.5754 220.165C96.6601 216.271 94.7379 212.377 92.8085 208.484C90.8546 204.554 88.7527 200.689 86.7037 196.802C86.6847 196.777 86.6574 196.759 86.6266 196.751C86.5957 196.743 86.5632 196.747 86.5346 196.76C86.506 196.774 86.483 196.797 86.4695 196.826C86.456 196.855 86.453 196.887 86.4608 196.918C89.7244 203.921 92.9353 210.944 96.1989 217.947C99.4626 224.95 102.663 231.984 105.874 239.018C109.085 246.053 112.211 252.855 115.158 259.857C116.641 263.184 117.856 266.624 118.791 270.145C119.63 273.787 120.128 277.5 120.28 281.235C120.766 289.927 121.009 298.651 121.865 307.323C121.865 307.428 122.055 307.418 122.055 307.323C122.372 299.465 122.245 291.554 122.013 283.706Z" fill="#37474F"/>
<path d="M117.059 388.766C114.102 388.386 91.5412 387.605 72.6985 388.407C72.6733 388.407 72.6491 388.417 72.6313 388.435C72.6135 388.453 72.6035 388.477 72.6035 388.502C72.6035 388.528 72.6135 388.552 72.6313 388.57C72.6491 388.587 72.6733 388.597 72.6985 388.597C78.8562 389.147 113.595 389.379 117.059 388.988C117.143 388.978 117.196 388.788 117.059 388.766Z" fill="#37474F"/>
<path d="M93.7697 194.426C88.3151 195.806 82.9898 197.654 77.8527 199.95C77.8312 199.957 77.8115 199.969 77.7945 199.984C77.7776 200 77.7638 200.018 77.754 200.039C77.7442 200.059 77.7385 200.082 77.7374 200.104C77.7362 200.127 77.7395 200.15 77.7471 200.171C77.7547 200.193 77.7665 200.213 77.7818 200.23C77.7971 200.247 77.8156 200.26 77.8361 200.27C77.8567 200.28 77.8791 200.286 77.9019 200.287C77.9246 200.288 77.9474 200.285 77.9689 200.277C83.2499 198.598 88.7422 197.034 93.9809 195.07C94.0664 195.042 94.1372 194.981 94.1778 194.901C94.2184 194.821 94.2255 194.728 94.1975 194.642C94.1695 194.557 94.1086 194.486 94.0284 194.445C93.9482 194.405 93.8551 194.398 93.7697 194.426Z" fill="#37474F"/>
<path d="M98.9028 159.539C98.9028 159.36 98.6071 159.286 98.586 159.476C98.0051 165.56 97.065 170.862 95.9771 176.492C95.4702 179.1 91.8474 193.454 87.3902 191.923C86.6403 191.659 86.334 190.866 86.334 189.705C86.5042 188.199 86.8589 186.719 87.3902 185.3C88.2141 182.301 88.9323 179.28 89.5026 176.227C90.6219 170.548 91.1493 164.768 91.0764 158.98C91.0764 158.94 91.0608 158.903 91.0331 158.875C91.0053 158.847 90.9677 158.832 90.9285 158.832C90.8893 158.832 90.8517 158.847 90.8239 158.875C90.7962 158.903 90.7806 158.94 90.7806 158.98C90.1054 166.948 88.8272 174.853 86.9572 182.628C85.996 186.367 83.5034 191.87 87.4008 192.863C91.2982 193.855 94.9738 184.582 95.7342 182.015C97.76 174.692 98.8251 167.137 98.9028 159.539Z" fill="#37474F"/>
<path d="M87.4747 192.324C86.9658 193.266 86.5177 194.24 86.1334 195.239C85.7583 196.003 85.529 196.831 85.4574 197.679C85.4574 197.837 85.6686 197.879 85.7637 197.774C86.3133 197.076 86.7548 196.3 87.0734 195.471C87.517 194.574 87.9817 193.686 88.3936 192.767C88.4525 192.646 88.4605 192.505 88.4159 192.378C88.3713 192.25 88.2778 192.145 88.156 192.086C88.0341 192.027 87.8939 192.019 87.7661 192.064C87.6384 192.108 87.5336 192.202 87.4747 192.324Z" fill="#37474F"/>
<path d="M78.9512 296.571C79.2152 289.336 80.0074 281.784 77.6415 274.761C76.3487 271.346 74.7986 268.034 73.0048 264.853C71.2444 261.453 69.5123 258.034 67.8083 254.598C61.0063 240.867 54.5952 226.904 48.8706 212.688C46.1139 205.833 43.6529 198.809 42.6707 191.458C41.7659 183.739 42.2452 175.92 44.086 168.369C44.519 166.489 44.9732 164.609 45.4907 162.75C45.4907 162.613 45.3217 162.539 45.2795 162.677C42.871 169.798 41.5327 177.237 41.3082 184.751C41.3572 191.961 42.6544 199.108 45.1422 205.875C47.582 212.973 50.6344 219.88 53.5918 226.756C56.697 233.854 59.922 240.895 63.2666 247.88C66.5936 254.82 70.1425 261.611 73.6596 268.487C75.474 271.74 76.7912 275.247 77.5676 278.89C78.1096 282.664 78.2512 286.484 77.9901 290.287C77.388 306.288 76.0044 359.574 75.8037 375.543C75.8037 377.571 75.8037 379.599 75.7298 381.617C75.7298 381.796 76.0044 381.828 76.0149 381.617C77.0817 365.721 78.3808 312.562 78.9512 296.571Z" fill="#37474F"/>
<path d="M67.5336 164.324C67.5336 164.208 67.3646 164.229 67.3435 164.324C66.7414 168.728 66.4034 173.301 64.2699 177.294C62.3265 180.959 58.915 183.325 55.2077 184.983C53.0469 185.909 50.8401 186.723 48.5959 187.423C48.4375 187.476 48.4797 187.719 48.5959 187.687C52.8207 186.81 57.0455 185.828 60.7528 183.462C64.6607 180.938 66.6781 176.882 67.3223 172.351C67.6717 169.69 67.7425 167 67.5336 164.324Z" fill="#37474F"/>
<path d="M97.5931 94.5513C106.243 111.07 133.419 134.94 142.08 137.032C152.769 139.598 176.491 121.706 185.691 111.165C189.493 106.803 173.64 87.7916 166.817 88.6788C163.056 89.1752 143.823 108.493 140.644 107.162C132.986 103.994 122.34 97.4241 107.141 88.626C98.8711 83.8414 92.2171 84.2744 97.5931 94.5513Z" fill="#EB9481"/>
<path d="M158.62 95.0476C158.62 95.0476 162.93 87.369 165.57 84.4116C168.211 81.4543 182.089 74.0397 183.864 76.9443C186.145 80.7044 178.973 86.5557 175.087 88.9639C175.087 88.9639 180.368 97.6458 176.143 102.969C171.918 108.292 158.62 95.0476 158.62 95.0476Z" fill="#EB9481"/>
<path d="M182.776 113.995C185.712 112.316 198.482 103.433 201.481 100.191C204.481 96.9484 212.434 86.9145 210.174 84.3479C207.913 81.7813 205.347 84.538 205.347 84.538C205.347 84.538 208.03 79.7851 205.516 77.4192C203.002 75.0533 199.179 79.4577 199.179 79.4577C199.179 79.4577 201.587 74.3668 198.904 72.191C196.221 70.0152 193.106 75.0956 193.106 75.0956C193.106 75.0956 195.514 70.5433 192.556 69.6773C188.997 68.6211 185.49 77.5354 181.91 80.8836C181.097 81.644 164.313 95.1528 164.313 95.1528L182.776 113.995Z" fill="#EB9481"/>
<path d="M193.359 74.6735C190.761 81.2114 188.5 83.6196 182.903 87.6965C182.797 87.781 182.903 87.9605 183.008 87.8866C188.849 84.3906 192.134 81.7818 193.676 74.7897C193.76 74.4412 193.486 74.3672 193.359 74.6735Z" fill="#263238"/>
<path d="M199.348 78.9932C196.063 85.5417 193.634 88.1822 188.089 92.8823C188.004 92.9456 188.089 93.0935 188.194 93.0301C194.024 88.8687 197.235 86.186 199.654 79.2045C199.77 78.8559 199.506 78.6552 199.348 78.9932Z" fill="#263238"/>
<path d="M205.051 84.7812C201.407 90.8966 198.862 93.9068 192.894 97.7725C192.87 97.7936 192.854 97.8224 192.849 97.854C192.844 97.8857 192.85 97.9181 192.867 97.9456C192.883 97.9732 192.908 97.9942 192.938 98.005C192.968 98.0158 193.001 98.0158 193.032 98.0048C199.496 94.6461 202.696 90.9177 205.231 84.9185C205.4 84.5066 205.326 84.401 205.051 84.7812Z" fill="#263238"/>
<path d="M184.202 78.1803C183.821 83.1128 178.509 85.9434 174.918 88.5628C174.863 88.6007 174.819 88.6513 174.788 88.7101C174.757 88.769 174.741 88.8343 174.741 88.9007C174.741 88.9671 174.757 89.0325 174.788 89.0914C174.819 89.1502 174.863 89.2008 174.918 89.2387C176.893 93.0199 178.583 98.9346 176.491 102.969C176.482 102.993 176.482 103.018 176.49 103.042C176.499 103.066 176.515 103.085 176.537 103.098C176.558 103.111 176.583 103.115 176.608 103.111C176.633 103.107 176.655 103.094 176.671 103.075C179.491 99.0931 178.308 93.1467 175.879 89.1331C179.607 86.5137 184.804 83.4296 184.276 78.2225L184.202 78.1803Z" fill="#263238"/>
<path d="M127.389 98.3219L116.605 123.259C116.605 123.259 97.815 100.022 94.2239 91.6256C90.1998 82.162 95.8822 82.162 104.987 85.732C114.091 89.3019 127.389 98.3219 127.389 98.3219Z" fill="#6864ED"/>
<path d="M120.566 96.3465C120.25 96.3366 119.942 96.2496 119.668 96.093C119.41 95.9404 119.197 95.7222 119.05 95.4607C118.904 95.1992 118.829 94.9035 118.833 94.6038C118.825 94.2097 118.702 93.8267 118.479 93.502C118.255 93.1772 117.942 92.9251 117.577 92.7766C117.238 92.6556 116.876 92.6193 116.52 92.6709C116.182 92.6709 115.834 92.7449 115.464 92.8083L116.52 92.935C116.84 92.9418 117.154 93.0213 117.439 93.1674C117.702 93.308 117.923 93.5162 118.079 93.7705C118.235 94.0248 118.32 94.3161 118.326 94.6144C118.322 95.007 118.432 95.3924 118.644 95.7228C118.857 96.0532 119.161 96.3142 119.52 96.4733C119.851 96.6195 120.217 96.6707 120.576 96.6211C120.925 96.5683 121.273 96.5472 121.632 96.4838C121.263 96.4205 120.914 96.3888 120.566 96.3465ZM94.1605 90.6008C94.1605 90.2522 94.0866 89.9143 94.0232 89.5446C93.9599 89.8931 93.9387 90.2311 93.8965 90.6008C93.9016 90.6429 93.9016 90.6854 93.8965 90.7275L94.1605 91.3824C94.196 91.1255 94.1853 90.8644 94.1288 90.6114L94.1605 90.6008ZM111.26 105.704C111.029 105.923 110.745 106.08 110.437 106.159C110.148 106.233 109.845 106.23 109.557 106.151C109.27 106.071 109.009 105.917 108.799 105.704C108.517 105.431 108.16 105.246 107.773 105.173C107.387 105.1 106.987 105.142 106.624 105.293C106.282 105.451 105.988 105.695 105.768 106C105.557 106.275 105.335 106.528 105.134 106.824C105.42 106.623 105.684 106.402 105.958 106.19C106.188 105.965 106.466 105.795 106.772 105.694C107.057 105.611 107.36 105.604 107.649 105.675C107.938 105.745 108.204 105.89 108.419 106.095C108.62 106.304 108.864 106.466 109.133 106.571C109.403 106.675 109.693 106.719 109.982 106.7C110.27 106.681 110.551 106.599 110.805 106.46C111.059 106.321 111.279 106.128 111.451 105.895C111.662 105.62 111.884 105.356 112.084 105.071C111.767 105.271 111.503 105.493 111.229 105.704H111.26Z" fill="white"/>
<path d="M122.498 97.2443C120.692 100.233 116.541 109.919 115.844 111.566C115.475 112.411 114.144 115.791 113.732 116.678C113.732 116.784 113.859 116.837 113.901 116.678C114.619 115.084 115.506 113.51 116.235 111.957C116.964 110.405 121.516 100.614 122.572 97.2548C122.563 97.2455 122.55 97.2394 122.537 97.2375C122.524 97.2356 122.51 97.238 122.498 97.2443Z" fill="#263238"/>
<path opacity="0.1" d="M94.2133 91.6679C97.8044 100.118 116.594 123.354 116.594 123.354L122.15 110.5L96.0406 83.6408C92.8614 83.7147 91.8052 85.9961 94.2133 91.6679Z" fill="black"/>
<path d="M38.6676 164.778L110.627 178.72C110.352 180.135 113.711 129.078 108.451 93.6429C106.898 83.1654 95.1321 78.2118 84.1582 87.4747C60.9957 106.972 38.4986 165.697 38.6676 164.778Z" fill="#6864ED"/>
<path d="M53.5812 131.962L53.2433 132.638L53.4545 132.406C53.6552 132.131 53.8875 131.867 54.0777 131.582C53.9087 131.698 53.7397 131.804 53.5812 131.962ZM109.94 164.704C109.657 164.432 109.299 164.248 108.913 164.177C108.526 164.105 108.126 164.149 107.764 164.303C107.422 164.456 107.127 164.696 106.909 165C106.698 165.275 106.476 165.539 106.275 165.824C106.56 165.623 106.824 165.402 107.099 165.19C107.33 164.969 107.608 164.803 107.912 164.704C108.198 164.619 108.501 164.611 108.79 164.682C109.08 164.752 109.346 164.899 109.56 165.106C109.761 165.305 110 165.463 110.263 165.568C110.527 165.673 110.808 165.724 111.091 165.718C111.091 165.549 111.091 165.38 111.091 165.211C110.652 165.187 110.24 164.994 109.94 164.673V164.704ZM67.7449 168.528C67.511 168.746 67.2286 168.905 66.9211 168.993C66.6314 169.065 66.3278 169.06 66.0406 168.978C65.7534 168.897 65.4926 168.741 65.284 168.528C64.9982 168.255 64.6391 168.072 64.2507 168.001C63.8623 167.93 63.4615 167.973 63.0976 168.127C62.7596 168.281 62.4681 168.521 62.2527 168.824L61.8724 169.309H62.0203L62.4322 168.993C62.66 168.773 62.9343 168.606 63.2349 168.507C63.5221 168.421 63.827 168.412 64.1184 168.483C64.4098 168.553 64.6772 168.7 64.8932 168.908C65.0945 169.116 65.3389 169.278 65.6092 169.381C65.8795 169.485 66.1692 169.528 66.458 169.508C66.7468 169.488 67.0276 169.405 67.281 169.265C67.5343 169.125 67.7539 168.931 67.9245 168.697C68.1357 168.422 68.3575 168.169 68.5582 167.873C68.2836 168.063 68.0195 168.285 67.7449 168.496V168.528ZM86.6087 131.371C86.3792 131.587 86.0998 131.743 85.7954 131.825C85.5052 131.902 85.1995 131.901 84.9099 131.821C84.6203 131.742 84.3572 131.586 84.1477 131.371C83.8658 131.096 83.5084 130.91 83.1209 130.839C82.7335 130.767 82.3335 130.813 81.9719 130.969C81.63 131.122 81.3348 131.362 81.1164 131.666C80.9052 131.941 80.6834 132.205 80.4827 132.49C80.7679 132.29 81.0319 132.068 81.3065 131.857C81.5328 131.629 81.8124 131.462 82.1198 131.371C82.4043 131.283 82.7072 131.273 82.9969 131.342C83.2866 131.41 83.5527 131.555 83.7675 131.762C84.038 132.033 84.3804 132.222 84.7545 132.307C85.1286 132.391 85.519 132.367 85.8799 132.237C86.2312 132.101 86.5356 131.866 86.7565 131.561C86.9678 131.286 87.1896 131.022 87.3902 130.737C87.1473 130.906 86.8833 131.128 86.6087 131.339V131.371ZM109.919 106.233C109.485 106.226 109.071 106.047 108.768 105.737C108.485 105.463 108.128 105.279 107.741 105.206C107.355 105.132 106.955 105.174 106.592 105.325C106.251 105.483 105.956 105.727 105.736 106.032C105.525 106.307 105.303 106.561 105.103 106.856C105.388 106.656 105.652 106.434 105.927 106.223C106.156 105.997 106.435 105.828 106.74 105.726C107.026 105.643 107.328 105.636 107.617 105.707C107.906 105.777 108.172 105.922 108.388 106.127C108.592 106.334 108.838 106.494 109.11 106.598C109.381 106.702 109.671 106.746 109.961 106.73C109.959 106.553 109.945 106.376 109.919 106.201V106.233ZM111.134 126.301C110.8 126.353 110.484 126.488 110.214 126.692C109.945 126.897 109.731 127.165 109.592 127.473C109.456 127.808 109.409 128.172 109.454 128.53C109.454 128.868 109.528 129.216 109.592 129.586C109.655 129.248 109.676 128.899 109.718 128.53C109.737 128.211 109.827 127.9 109.982 127.621C110.107 127.409 110.277 127.226 110.479 127.086C110.682 126.945 110.912 126.85 111.155 126.808C111.144 126.597 111.134 126.417 111.134 126.227V126.301ZM68.8856 118.327C68.8856 117.978 68.8117 117.63 68.7483 117.27C68.6849 117.608 68.6638 117.957 68.611 118.327C68.6058 118.642 68.53 118.953 68.3892 119.235C68.2477 119.497 68.0393 119.718 67.7851 119.873C67.531 120.029 67.2402 120.115 66.9422 120.122C66.5486 120.119 66.1627 120.231 65.8309 120.442C65.4992 120.654 65.2358 120.957 65.0727 121.316C64.9375 121.65 64.8902 122.014 64.9354 122.372C64.9354 122.72 65.0093 123.058 65.0727 123.428C65.1361 123.08 65.1572 122.742 65.21 122.372C65.2199 122.053 65.3069 121.741 65.4635 121.464C65.6178 121.207 65.8363 120.995 66.0974 120.849C66.3586 120.702 66.6534 120.627 66.9527 120.629C67.3471 120.622 67.7308 120.5 68.0558 120.276C68.3807 120.053 68.6326 119.738 68.78 119.372C68.9228 119.017 68.9666 118.63 68.9067 118.253L68.8856 118.327ZM52.5778 153.266C52.5778 152.928 52.5039 152.579 52.4405 152.21C52.3772 152.558 52.356 152.907 52.3138 153.266C52.3069 153.586 52.2275 153.9 52.0814 154.185C51.9408 154.448 51.7326 154.669 51.4783 154.825C51.224 154.98 50.9327 155.066 50.6344 155.072C50.2418 155.067 49.8564 155.178 49.526 155.39C49.1956 155.602 48.9346 155.906 48.7755 156.265C48.6308 156.597 48.5797 156.963 48.6277 157.322C48.6277 157.66 48.7016 158.008 48.765 158.378C48.8283 158.04 48.8495 157.691 48.9023 157.322C48.9109 157.003 48.998 156.691 49.1558 156.413C49.3084 156.155 49.5266 155.942 49.7881 155.796C50.0496 155.649 50.3452 155.574 50.645 155.579C51.0391 155.571 51.4221 155.447 51.7468 155.224C52.0715 155.001 52.3237 154.687 52.4722 154.322C52.5932 153.984 52.6295 153.621 52.5778 153.266ZM85.9327 151.153C85.9327 150.815 85.8588 150.467 85.7954 150.097C85.732 150.435 85.7109 150.784 85.6581 151.153C85.6545 151.472 85.5787 151.787 85.4363 152.072C85.2948 152.335 85.0864 152.555 84.8322 152.711C84.5781 152.867 84.2873 152.952 83.9893 152.959C83.596 152.958 83.2106 153.07 82.8791 153.281C82.5476 153.493 82.284 153.796 82.1198 154.153C81.9846 154.488 81.9373 154.851 81.9825 155.209C81.9825 155.547 82.0564 155.896 82.1198 156.265C82.1832 155.927 82.2043 155.579 82.2571 155.209C82.2658 154.89 82.3528 154.578 82.5106 154.301C82.6632 154.043 82.8814 153.83 83.1429 153.683C83.4045 153.537 83.7001 153.462 83.9998 153.466C84.3939 153.458 84.7769 153.335 85.1017 153.112C85.4264 152.888 85.6786 152.575 85.8271 152.21C85.9712 151.859 86.0222 151.477 85.9749 151.101L85.9327 151.153ZM94.1288 90.6119C94.1288 90.2633 94.0549 89.9254 93.9915 89.5557C93.9281 89.9042 93.907 90.2422 93.8648 90.6119C93.8528 90.9311 93.7736 91.2442 93.6324 91.5308C93.4904 91.7919 93.2816 92.0106 93.0274 92.1646C92.7731 92.3187 92.4826 92.4024 92.1854 92.4074C91.7921 92.406 91.4067 92.5177 91.0752 92.7294C90.7437 92.941 90.4801 93.2436 90.3159 93.6009C90.1807 93.9355 90.1334 94.2991 90.1786 94.6571C90.1786 95.0057 90.2526 95.3437 90.3159 95.7134C90.3793 95.3648 90.4004 95.0268 90.4532 94.6571C90.4619 94.3415 90.549 94.0329 90.7067 93.7594C90.8577 93.4999 91.0755 93.2856 91.3374 93.1388C91.5993 92.9921 91.8958 92.9182 92.196 92.925C92.5894 92.9142 92.9712 92.7898 93.2955 92.5668C93.6197 92.3437 93.8724 92.0316 94.0232 91.6681C94.1442 91.33 94.1805 90.9673 94.1288 90.6119ZM73.5963 103.075C73.3721 103.3 73.0966 103.467 72.7935 103.561C72.509 103.649 72.2062 103.659 71.9165 103.59C71.6267 103.521 71.3607 103.376 71.1459 103.17C71.0158 103.031 70.862 102.917 70.6917 102.832C70.5931 102.98 70.4875 103.128 70.3748 103.276C70.5149 103.352 70.643 103.448 70.7551 103.561C71.0394 103.836 71.3986 104.021 71.7876 104.092C72.1766 104.163 72.578 104.118 72.9414 103.962C73.2795 103.808 73.5709 103.568 73.7864 103.265C73.9976 102.991 74.23 102.727 74.4201 102.441C74.1349 102.642 73.8709 102.864 73.5963 103.075ZM104.892 144.087C104.573 144.077 104.261 143.99 103.983 143.834C103.727 143.679 103.516 143.46 103.37 143.199C103.224 142.938 103.147 142.644 103.149 142.345C103.142 141.95 103.019 141.567 102.796 141.242C102.572 140.917 102.258 140.665 101.892 140.517C101.555 140.393 101.191 140.357 100.836 140.412C100.487 140.412 100.139 140.486 99.7795 140.539C100.117 140.602 100.466 140.634 100.836 140.676C101.152 140.684 101.462 140.764 101.744 140.908C102.008 141.048 102.229 141.256 102.385 141.51C102.541 141.765 102.626 142.057 102.631 142.355C102.629 142.747 102.741 143.132 102.953 143.461C103.164 143.791 103.467 144.053 103.825 144.214C104.157 144.358 104.522 144.409 104.881 144.362C105.229 144.362 105.567 144.288 105.937 144.225C105.578 144.161 105.24 144.13 104.892 144.087ZM86.1017 173.207C86.0977 172.812 85.976 172.427 85.7521 172.101C85.5282 171.776 85.2123 171.525 84.8448 171.38C84.5092 171.248 84.1437 171.211 83.7886 171.274C83.4401 171.274 83.0915 171.337 82.7324 171.401C83.0704 171.464 83.4189 171.496 83.7886 171.538C84.1057 171.541 84.4174 171.621 84.6969 171.77C84.9607 171.91 85.1822 172.118 85.3382 172.373C85.4943 172.627 85.5792 172.919 85.5841 173.217C85.5807 173.445 85.6201 173.67 85.7003 173.883L86.334 174.01C86.1875 173.767 86.1074 173.49 86.1017 173.207ZM67.2062 146.084C66.8874 146.074 66.5758 145.987 66.2979 145.83C66.0399 145.677 65.8268 145.459 65.6803 145.198C65.5338 144.936 65.459 144.641 65.4635 144.341C65.4568 143.946 65.3339 143.563 65.1104 143.238C64.8869 142.913 64.5725 142.661 64.2066 142.514C63.8685 142.393 63.5058 142.356 63.1504 142.408C62.8124 142.408 62.4639 142.482 62.0942 142.545C62.4322 142.598 62.7808 142.63 63.1504 142.672C63.4704 142.679 63.7846 142.758 64.0693 142.904C64.3324 143.045 64.5533 143.253 64.7092 143.508C64.8651 143.762 64.9505 144.053 64.9565 144.351C64.9518 144.641 65.0102 144.929 65.1278 145.194C65.2454 145.459 65.4193 145.695 65.6375 145.886C65.8556 146.077 66.1127 146.218 66.3909 146.3C66.6691 146.381 66.9618 146.401 67.2485 146.358C67.5865 146.305 67.935 146.284 68.3047 146.221C67.8928 146.158 67.5442 146.126 67.2062 146.084ZM92.5551 115.707C92.238 115.699 91.9286 115.608 91.6573 115.443C91.3994 115.293 91.1861 115.077 91.0395 114.817C90.8928 114.557 90.8181 114.263 90.8229 113.965C90.8135 113.571 90.6896 113.188 90.4664 112.864C90.2432 112.539 89.9303 112.287 89.566 112.137C89.2296 112.009 88.866 111.969 88.5098 112.021C88.1613 112.021 87.8233 112.095 87.4536 112.158C87.8022 112.222 88.1402 112.253 88.5098 112.296C88.8304 112.297 89.1458 112.377 89.4287 112.528C89.6911 112.67 89.9114 112.878 90.0672 113.132C90.223 113.386 90.3088 113.677 90.3159 113.975C90.313 114.366 90.423 114.749 90.6329 115.079C90.8428 115.409 91.1435 115.671 91.4989 115.834C91.832 115.975 92.1971 116.022 92.5551 115.971C92.9036 115.971 93.2522 115.897 93.6113 115.834C93.2733 115.781 92.9247 115.749 92.5762 115.707H92.5551Z" fill="white"/>
<path d="M103.666 95.8928C100.16 96.6638 92.9564 92.4179 90.5589 87.3904C90.4004 87.0418 91.1081 83.5458 91.7629 79.2471C92.1537 76.6488 92.534 73.7337 92.6818 71.0509C92.6818 70.5017 109.275 76.0785 109.275 76.0785C108.129 79.3771 107.391 82.8035 107.078 86.2814C107.061 86.6343 107.079 86.9881 107.131 87.3376C107.131 87.3376 107.131 87.4432 107.131 87.5171C107.363 89.7035 107.416 95.1006 103.666 95.8928Z" fill="#EB9481"/>
<path d="M107.099 87.4431C107.099 87.4431 107.099 87.5592 107.099 87.6226C106.523 87.67 105.943 87.67 105.367 87.6226C95.4807 86.8621 93.5584 74.325 93.231 71.1564C96.1989 71.7479 109.232 76.1417 109.232 76.1417C108.081 79.4392 107.34 82.866 107.025 86.3446C107.023 86.7121 107.047 87.0792 107.099 87.4431Z" fill="#263238"/>
<path d="M90.7278 50.0218C88.7528 55.947 91.4989 73.2582 95.6498 77.2189C101.681 82.9436 111.746 83.7146 116.658 76.4268C121.421 69.3714 117.45 46.8532 112.792 43.2409C105.927 37.9283 93.6218 41.2658 90.7278 50.0218Z" fill="#EB9481"/>
<path d="M107.3 60.7526C107.3 60.7526 107.215 60.816 107.226 60.8688C107.448 62.0306 107.5 63.3931 106.497 63.9423C106.497 63.9423 106.497 64.0162 106.497 64.0057C107.786 63.6255 107.69 61.8194 107.3 60.7526Z" fill="#263238"/>
<path d="M106.043 59.6861C104.142 59.834 104.575 63.6257 106.328 63.4884C108.081 63.3511 107.669 59.5699 106.043 59.6861Z" fill="#263238"/>
<path d="M114.123 60.1719C114.123 60.1719 114.218 60.1719 114.218 60.267C114.323 61.4393 114.63 62.7702 115.728 63.0448V63.1081C114.418 63.0765 114.028 61.302 114.123 60.1719Z" fill="#263238"/>
<path d="M115.031 58.8304C116.901 58.4713 117.481 62.2419 115.749 62.5694C114.017 62.8968 113.436 59.1262 115.031 58.8304Z" fill="#263238"/>
<path d="M104.385 58.1229C104.865 57.9233 105.334 57.6976 105.789 57.4469C106.317 57.2693 106.776 56.9292 107.099 56.4752C107.167 56.3101 107.179 56.1277 107.136 55.9547C107.092 55.7817 106.994 55.6273 106.856 55.5141C106.548 55.3351 106.198 55.2408 105.842 55.2408C105.486 55.2408 105.136 55.3351 104.828 55.5141C104.154 55.7967 103.606 56.3147 103.286 56.9716C103.22 57.1274 103.201 57.2992 103.231 57.4658C103.261 57.6324 103.339 57.7864 103.456 57.9089C103.573 58.0314 103.723 58.117 103.888 58.155C104.053 58.193 104.226 58.1819 104.385 58.1229Z" fill="#263238"/>
<path d="M116.277 56.7497C115.756 56.7076 115.237 56.6335 114.725 56.5279C114.171 56.5327 113.631 56.3504 113.193 56.0103C113.074 55.8752 113.004 55.7044 112.992 55.5247C112.981 55.345 113.029 55.1666 113.13 55.0175C113.37 54.7558 113.676 54.563 114.016 54.459C114.356 54.355 114.717 54.3436 115.063 54.426C115.791 54.4796 116.473 54.8036 116.974 55.3343C117.08 55.463 117.146 55.6193 117.166 55.7847C117.185 55.95 117.156 56.1174 117.082 56.2667C117.009 56.416 116.894 56.541 116.751 56.6266C116.608 56.7123 116.444 56.755 116.277 56.7497Z" fill="#263238"/>
<path d="M112.38 69.2764C111.907 70.0285 111.249 70.6467 110.468 71.0719C110.037 71.2864 109.549 71.3603 109.074 71.2831C108.018 71.1141 107.912 70.2269 108.018 69.3714C108.077 68.9365 108.191 68.5108 108.356 68.104C109.538 68.9133 110.948 69.324 112.38 69.2764Z" fill="#263238"/>
<path d="M110.437 71.0717C110.005 71.2862 109.518 71.3601 109.042 71.2829C107.986 71.114 107.881 70.2267 107.986 69.3712C108.527 69.3362 109.063 69.4853 109.508 69.794C109.953 70.1028 110.28 70.5532 110.437 71.0717Z" fill="#FF9ABB"/>
<path d="M96.2835 59.6965C97.4031 56.3166 95.4174 50.6871 97.0968 49.1345C100.709 45.8286 108.229 52.0496 113.352 52.039C118.474 52.0285 119.942 48.8704 119.013 44.7935C118.083 40.7165 114.64 38.0972 109.064 37.3156C104.192 36.7976 99.2936 38.0008 95.2167 40.7165C95.2167 40.7165 96.4525 38.6992 95.9772 38.076C95.5019 37.4529 93.0832 39.4069 92.3439 40.1884C91.8075 40.9147 91.4035 41.7299 91.1503 42.5966C90.4113 42.4153 89.6502 42.3406 88.8901 42.3748C87.7816 42.487 86.7487 42.9884 85.975 43.7901C85.8905 44.0858 87.6966 44.3076 88.964 44.3604C88.964 44.3604 86.6298 47.529 86.7037 50.2012C86.7777 52.8734 91.0553 65.6007 92.0587 65.7274C93.3684 65.8964 95.8293 61.0379 96.2835 59.6965Z" fill="#263238"/>
<path d="M89.4287 44.0331C89.4287 44.0331 89.5343 44.0331 89.4921 44.0965C88.2726 45.102 87.355 46.4253 86.841 47.9199C86.3444 49.7314 86.3444 51.643 86.841 53.4544C87.6543 56.9716 89.4076 60.1613 90.9285 63.3933C90.9285 63.4883 90.8123 63.5728 90.7701 63.4778C88.7493 60.1585 87.2563 56.5455 86.3446 52.7679C85.732 49.557 86.4502 45.8498 89.4287 44.0331Z" fill="#263238"/>
<path d="M96.8855 47.8565C98.3914 47.6555 99.9217 47.7415 101.396 48.11C102.76 48.5747 104.062 49.2062 105.272 49.99C108.043 51.6534 111.229 52.4992 114.461 52.4298V52.4932C111.498 52.7697 108.52 52.1594 105.905 50.7399C104.608 49.9544 103.265 49.249 101.881 48.6275C100.256 48.179 98.569 47.9971 96.8855 48.0889C96.8659 48.0765 96.8497 48.0593 96.8385 48.039C96.8273 48.0187 96.8214 47.9959 96.8214 47.9727C96.8214 47.9495 96.8273 47.9266 96.8385 47.9063C96.8497 47.886 96.8659 47.8689 96.8855 47.8565Z" fill="#263238"/>
<path d="M98.2586 39.3014C100.26 38.3012 102.394 37.59 104.596 37.189C106.705 36.7284 108.877 36.6355 111.017 36.9144C114.693 37.4847 118.105 39.7978 118.992 43.5684C119.481 45.5003 119.233 47.5453 118.295 49.3036C118.288 49.3161 118.28 49.3272 118.269 49.3364C118.259 49.3455 118.246 49.3525 118.233 49.3569C118.22 49.3613 118.206 49.3631 118.192 49.3621C118.178 49.3611 118.165 49.3574 118.152 49.3511C118.14 49.3449 118.128 49.3362 118.119 49.3257C118.11 49.3152 118.103 49.3029 118.099 49.2897C118.094 49.2764 118.093 49.2625 118.094 49.2485C118.095 49.2346 118.098 49.221 118.105 49.2085C118.874 47.5912 119.099 45.7679 118.745 44.0121C118.391 42.2563 117.477 40.6627 116.14 39.4704C113.098 36.8827 108.863 36.7137 105.103 37.358C102.753 37.7897 100.455 38.4695 98.248 39.3859L98.2586 39.3014Z" fill="#263238"/>
<path d="M94.7414 64.3755C94.7414 64.3755 90.8651 58.7881 88.3303 60.1506C85.7954 61.5131 88.6894 69.6565 91.6573 70.7127C92.0277 70.8825 92.4287 70.9756 92.8361 70.9863C93.2435 70.9971 93.6488 70.9253 94.0278 70.7754C94.4067 70.6254 94.7513 70.4003 95.041 70.1136C95.3306 69.8269 95.5592 69.4846 95.7131 69.1072L94.7414 64.3755Z" fill="#EB9481"/>
<path d="M89.2175 62.4637C89.2175 62.4637 89.2175 62.5271 89.2175 62.5482C91.3299 63.3932 92.3861 65.3366 93.1465 67.3434C93.025 67.1344 92.8597 66.9542 92.6621 66.815C92.4645 66.6758 92.2392 66.5809 92.0015 66.5368C91.7639 66.4927 91.5195 66.5004 91.2851 66.5594C91.0507 66.6184 90.8318 66.7273 90.6433 66.8786C90.6433 66.8786 90.6433 66.9948 90.7067 66.9843C91.0725 66.8699 91.4648 66.8715 91.8297 66.9887C92.1946 67.106 92.5144 67.3331 92.7452 67.6391C93.1318 68.1564 93.4578 68.7163 93.7169 69.3079C93.8225 69.4875 94.1605 69.3924 94.0865 69.1812C94.1182 66.4667 92.0692 62.7489 89.2175 62.4637Z" fill="#263238"/>
<path d="M225.573 41.4664L270.683 106.613L331.447 120.048L346.582 129.395L298.578 192.44L300.363 271.655L225.573 245.482L150.773 271.655L135.638 262.318L152.558 192.44L104.554 129.395L180.442 106.613L210.438 32.119L225.573 41.4664Z" fill="#FFB400"/>
<path opacity="0.1" d="M225.573 41.4664L270.683 106.613L331.447 120.048L346.582 129.395L298.578 192.44L300.363 271.655L225.573 245.482L150.773 271.655L135.638 262.318L152.558 192.44L104.554 129.395L180.442 106.613L210.438 32.119L225.573 41.4664Z" fill="black"/>
<path d="M210.438 32.119L255.559 97.2655L331.447 120.048L283.442 183.092L285.227 262.318L210.438 236.135L135.638 262.318L137.423 183.092L89.4182 120.048L165.317 97.2655L210.438 32.119Z" fill="#FFB400"/>
<g opacity="0.2">
<path d="M136.609 219.204L137.423 183.092L127.019 169.425L232.481 63.9632L255.548 97.2652L257.851 97.9623L136.609 219.204Z" fill="white"/>
<path d="M322.448 117.344L200.013 239.779L164.894 252.073L304.894 112.074L322.448 117.344Z" fill="white"/>
<path d="M128.952 108.176L101.374 135.754L91.5095 122.805L96.3469 117.967L128.952 108.176Z" fill="white"/>
<path d="M228.816 58.6719L123.143 164.345L122.171 163.067L227.897 57.3411L228.816 58.6719Z" fill="white"/>
<path d="M284.435 227.168L258.601 253.003L256.942 252.422L284.383 224.982L284.435 227.168Z" fill="white"/>
</g>
<path d="M79.9969 99.843C77.3775 117.291 70.8607 153.361 78.1591 164.208C87.7388 178.445 119.763 188.131 128.16 191.014C131.814 192.271 141.584 168.454 139.577 164.852C137.57 161.251 104.321 147.647 102.071 145.534C99.8218 143.422 96.9172 114.841 93.9915 100.118C90.3054 81.6024 82.2149 85.0773 79.9969 99.843Z" fill="#EB9481"/>
<path d="M149.548 173.355C148.238 171.876 148.999 171.179 152.452 171.813C155.906 172.446 169.014 177.843 170.513 173.112C172.013 168.38 153.403 161.018 147.583 160.437C141.764 159.856 132.131 160.891 132.131 160.891C135.469 163.025 143.01 169.035 149.548 173.355Z" fill="#EB9481"/>
<path d="M119.023 187.022C128.635 192.757 140.264 200.488 152.896 200.562C154.299 200.602 155.675 200.171 156.804 199.337C162.465 199.474 164.197 196.844 164.197 196.844C169.478 195.355 170.946 192.408 170.946 192.408C170.946 192.408 177.59 192.493 178.34 188.49C179.164 183.99 169.658 184.751 164.187 181.973C151.628 175.636 135.564 163.067 132.131 160.849L119.023 187.022Z" fill="#EB9481"/>
<path d="M146.347 184.613C149.999 186.513 153.775 188.164 157.649 189.556C161.985 190.812 166.409 191.744 170.883 192.345C170.911 192.345 170.938 192.356 170.958 192.376C170.977 192.396 170.989 192.422 170.989 192.45C170.989 192.479 170.977 192.505 170.958 192.525C170.938 192.545 170.911 192.556 170.883 192.556C162.124 192.267 153.614 189.574 146.284 184.772C146.094 184.613 146.178 184.466 146.347 184.613Z" fill="#263238"/>
<path d="M141.404 191.574C145.133 193.127 151.702 195.799 164.239 196.707C164.239 196.707 164.292 196.781 164.239 196.781C156.285 197.264 148.352 195.523 141.33 191.754C141.109 191.638 141.161 191.469 141.404 191.574Z" fill="#263238"/>
<path d="M138.785 195.397C145.228 197.784 149.59 198.481 156.74 199.305V199.39C148.513 199.295 145.534 198.333 138.679 195.608C138.468 195.513 138.574 195.302 138.785 195.397Z" fill="#263238"/>
<path d="M98.8184 120.185L73.2372 128.698C73.2372 128.698 78.0007 99.431 81.8347 91.2243C86.144 81.9825 89.9252 86.2073 93.3156 95.2801C96.706 104.353 98.8184 120.185 98.8184 120.185Z" fill="#6864ED"/>
<path d="M92.5762 115.707C92.2591 115.698 91.9497 115.607 91.6785 115.443C91.4206 115.293 91.2073 115.077 91.0606 114.817C90.914 114.557 90.8392 114.263 90.8441 113.964C90.8346 113.571 90.7107 113.188 90.4876 112.864C90.2644 112.539 89.9515 112.287 89.5872 112.137C89.2508 112.009 88.8872 111.969 88.531 112.021C88.1824 112.021 87.8445 112.095 87.4748 112.158C87.8233 112.221 88.1613 112.253 88.531 112.295C88.8516 112.297 89.167 112.377 89.4499 112.528C89.7122 112.669 89.9325 112.878 90.0883 113.132C90.2442 113.386 90.33 113.677 90.3371 113.975C90.3341 114.366 90.4442 114.749 90.6541 115.079C90.864 115.409 91.1647 115.671 91.52 115.834C91.8532 115.974 92.2182 116.022 92.5762 115.971C92.9248 115.971 93.2733 115.897 93.6324 115.834C93.2733 115.781 92.9248 115.749 92.5762 115.707ZM92.1432 92.3966C91.7588 92.4104 91.3855 92.5288 91.0635 92.7391C90.7415 92.9494 90.483 93.2437 90.316 93.5901C90.1807 93.9247 90.1335 94.2883 90.1787 94.6463C90.1787 94.9949 90.2526 95.3329 90.316 95.7025C90.3793 95.354 90.4005 95.016 90.4533 94.6463C90.4619 94.3306 90.549 94.0221 90.7068 93.7485C90.8577 93.489 91.0755 93.2748 91.3375 93.128C91.5994 92.9813 91.8959 92.9074 92.196 92.9141C92.2554 92.9244 92.3162 92.9244 92.3756 92.9141C92.3122 92.724 92.2171 92.5762 92.1432 92.3966Z" fill="white"/>
<path d="M96.3786 115.886C92.9776 116.52 83.0388 119.89 81.3911 120.428C80.5144 120.713 77.1029 122.002 76.2368 122.277C76.1206 122.277 76.2368 122.477 76.3107 122.446C77.969 121.917 79.68 121.558 81.3488 121.041C83.0176 120.523 93.2522 117.471 96.4208 116.013C96.537 115.96 96.4525 115.865 96.3786 115.886Z" fill="#263238"/>
<path d="M78.4548 102.673C78.4548 102.547 78.2963 102.526 78.2647 102.673C77.5781 105.103 76.955 107.542 76.3741 110.003C76.3761 108.682 76.4999 107.363 76.7437 106.064C76.7437 106 76.6698 105.99 76.6487 106.064C76.3163 107.557 76.1778 109.087 76.2368 110.616C75.8354 112.327 75.4446 114.038 75.0749 115.76C74.1455 120.132 73.1632 124.505 72.4767 128.92C72.4698 128.974 72.4769 129.029 72.4973 129.079C72.5176 129.129 72.5506 129.174 72.593 129.208C72.6355 129.242 72.6859 129.264 72.7395 129.273C72.7931 129.282 72.8481 129.277 72.8992 129.258C73.7758 128.931 74.6419 128.582 75.4974 128.202C75.5819 128.202 75.5608 128.001 75.4974 128.022C74.7369 128.17 73.987 128.371 73.2371 128.561C74.2933 124.336 75.0432 120.111 75.941 115.886C76.8388 111.662 77.7049 107.078 78.4548 102.673Z" fill="#263238"/>
<path d="M97.3185 108.736C97.2235 107.31 97.1179 105.895 96.9805 104.511C96.9805 105.568 97.065 106.624 97.1284 107.68C96.6742 105.642 96.1884 103.614 95.6075 101.617C96.0405 104.786 96.6637 107.86 97.139 110.986C97.6143 114.112 98.1952 117.101 98.7127 120.154C98.1635 120.439 97.6037 120.703 97.0439 120.967C97.0284 120.98 97.0171 120.997 97.0119 121.016C97.0066 121.035 97.0076 121.056 97.0146 121.074C97.0216 121.093 97.0343 121.109 97.051 121.12C97.0676 121.131 97.0873 121.137 97.1073 121.136C97.7621 120.956 98.417 120.777 99.0824 120.618C99.1599 120.608 99.2304 120.568 99.2795 120.507C99.3286 120.446 99.3526 120.369 99.3464 120.291C98.755 116.394 98.1213 112.549 97.3185 108.736Z" fill="#263238"/>
<path d="M350.078 248.334V272.088H354.768V280.189L362.869 272.088H431.448V248.334H350.078Z" fill="white"/>
<path d="M350.078 248.334C350.152 256.34 350.363 264.261 350.395 272.088L350.078 271.771H354.767H355.105V272.119V280.22L354.44 279.935L362.488 271.803L362.626 271.676H362.816L431.395 271.602L430.877 272.119V248.365L431.353 248.841C407.916 248.841 373.79 248.556 350.025 248.365L350.078 248.334ZM350.078 248.334C374.117 248.207 407.725 247.837 431.405 247.858H431.881V248.334V272.088V272.605H431.363L362.784 272.542L363.101 272.405L354.958 280.463L354.282 281.129V280.189V272.088L354.63 272.436H349.941H349.624V272.119C349.624 264.113 349.867 256.192 349.93 248.365L350.078 248.334Z" fill="#263238"/>
<path d="M362.214 254.639L364.062 257.396L367.262 258.304L365.213 260.913L365.329 264.24L362.214 263.089L359.087 264.24L359.214 260.913L357.165 258.304L360.365 257.396L362.214 254.639Z" fill="#FFB400"/>
<path d="M376.494 254.639L378.342 257.396L381.532 258.304L379.483 260.913L379.609 264.24L376.494 263.089L373.367 264.24L373.494 260.913L371.434 258.304L374.635 257.396L376.494 254.639Z" fill="#FFB400"/>
<path d="M390.763 254.639L392.611 257.396L395.811 258.304L393.762 260.913L393.879 264.24L390.763 263.089L387.647 264.24L387.774 260.913L385.714 258.304L388.914 257.396L390.763 254.639Z" fill="#FFB400"/>
<path d="M405.043 254.639L406.891 257.396L410.091 258.304L408.032 260.913L408.158 264.24L405.043 263.089L401.916 264.24L402.043 260.913L399.994 258.304L403.184 257.396L405.043 254.639Z" fill="#FFB400"/>
<path d="M419.312 263.089V254.639L417.464 257.396L414.263 258.304L416.323 260.913L416.196 264.24L419.312 263.089Z" fill="#FFB400"/>
<path d="M419.312 254.639L421.255 257.333C421.995 257.438 423.431 257.903 424.424 258.135L424.667 258.199L424.508 258.41L422.502 261.061V260.913L422.65 264.23V264.589L422.312 264.462L419.143 263.342H419.323L416.154 264.462L415.805 264.589V264.23L415.943 260.913L415.995 261.061L413.978 258.41L413.82 258.199L414.073 258.135C415.045 257.903 416.492 257.428 417.242 257.333L419.175 254.639H419.312ZM419.312 254.639L417.548 257.491C416.492 257.903 415.383 258.167 414.316 258.547L414.401 258.273L416.513 260.85C416.527 260.872 416.535 260.898 416.535 260.924C416.535 260.95 416.527 260.976 416.513 260.998L416.407 264.325L416.08 264.082L419.196 262.92C419.291 262.92 419.28 262.92 419.375 262.92L422.491 264.082L422.164 264.325L422.058 260.998C422.058 260.913 422.058 260.913 422.058 260.85L424.17 258.273L424.266 258.547C423.209 258.199 422.069 257.935 421.034 257.491L419.259 254.682L419.312 254.639Z" fill="#263238"/>
<path d="M122.974 0.38028V40.8117H127.653V48.9127L135.754 40.8117H218.317V0.38028H122.974Z" fill="white"/>
<path d="M122.942 0.380233C123.079 12.3047 123.174 29.0983 123.238 40.8116L122.942 40.5159H127.938V40.8222V48.9233L127.346 48.6803L135.416 40.5581L135.532 40.442L197.615 40.3047H218.254L217.778 40.7694L217.873 0.337984L218.254 0.728782C194.489 0.728782 146.675 0.485852 122.91 0.337984L122.942 0.380233ZM122.942 0.380233C146.696 0.242927 194.531 0.021124 218.285 0H218.665V0.380233L218.761 40.8116V41.2869H218.285C195.26 41.4031 159.011 41.2869 135.722 41.2024L135.997 41.0862L127.864 49.1556L127.283 49.7365V48.9127V40.8116L127.589 41.1285H122.91H122.615C122.625 29.2251 122.942 12.4526 122.942 0.380233Z" fill="#263238"/>
<path d="M155.748 20.6489C155.748 22.9259 155.072 25.1518 153.807 27.045C152.542 28.9382 150.744 30.4138 148.641 31.2852C146.537 32.1566 144.222 32.3846 141.989 31.9403C139.756 31.4961 137.704 30.3996 136.094 28.7896C134.484 27.1795 133.388 25.1282 132.944 22.8949C132.499 20.6617 132.727 18.3469 133.599 16.2433C134.47 14.1396 135.946 12.3416 137.839 11.0766C139.732 9.81155 141.958 9.13635 144.235 9.13635C147.288 9.13635 150.217 10.3493 152.376 12.5083C154.535 14.6673 155.748 17.5956 155.748 20.6489Z" fill="black"/>
<path d="M144.383 22.6135C146.384 22.6135 148.006 20.9915 148.006 18.9907C148.006 16.9899 146.384 15.368 144.383 15.368C142.382 15.368 140.76 16.9899 140.76 18.9907C140.76 20.9915 142.382 22.6135 144.383 22.6135Z" fill="white"/>
<path d="M138.13 28.9822V30.4715C139.189 31.1331 140.348 31.6182 141.563 31.9079C143.096 32.2882 144.69 32.357 146.25 32.1103C147.81 31.8635 149.305 31.3063 150.646 30.4715V28.9822C150.681 28.1388 150.545 27.297 150.246 26.5076C149.947 25.7181 149.491 24.9972 148.907 24.3881C148.322 23.7791 147.621 23.2945 146.844 22.9635C146.068 22.6324 145.232 22.4618 144.388 22.4618C143.544 22.4618 142.708 22.6324 141.932 22.9635C141.155 23.2945 140.454 23.7791 139.869 24.3881C139.285 24.9972 138.829 25.7181 138.531 26.5076C138.232 27.297 138.095 28.1388 138.13 28.9822Z" fill="white"/>
<path d="M207.079 13.6566H163.901V14.3115H207.079V13.6566Z" fill="black"/>
<path d="M207.079 18.1351H163.901V18.7899H207.079V18.1351Z" fill="black"/>
<path d="M207.079 22.6134H163.901V23.2682H207.079V22.6134Z" fill="black"/>
<path d="M185.3 27.0918H163.901V27.7467H185.3V27.0918Z" fill="black"/>
</svg>
